<svg width="171" height="111" viewBox="0 0 171 111" fill="none" xmlns="http://www.w3.org/2000/svg">
<path d="M124.558 7.0346L119.676 4.39446H111.789H108.409L102.776 5.90311H97.8933L94.1378 3.64014L91.8844 1H90.0067L87.7533 4.39446L84.3733 5.14879L82.12 7.0346L79.8667 2.88581H74.6089L73.1067 1H70.4778V4.77163L71.6044 8.16609L70.4778 10.4291L67.8489 8.92042L69.3511 13.4464L71.6044 16.0865V22.1211L72.3556 25.1384L70.4778 27.7785L67.8489 30.0415L64.4689 30.7958L62.2156 34.9446L65.9711 36.4533L70.4778 40.2249L68.6 43.6194H65.9711L67.0978 46.2595L64.4689 49.2768H59.2111L62.2156 52.6713L59.2111 55.3114L53.2022 54.1799L52.0756 51.5398H47.1933L43.0622 54.1799H40.8089H38.5556L35.9267 56.8201H34.4244H32.1711L27.6644 61.346H22.7822L18.2756 62.4775L19.7778 68.1349L22.7822 70.3979L25.4111 71.1523L27.6644 73.7924L32.1711 72.6609L35.9267 75.6782L40.4333 74.9239L44.5644 70.3979L45.6911 72.6609L40.4333 77.9412L38.5556 80.9585L37.4289 81.4883L30.2933 79.827L24.66 77.9412H16.3978L11.14 76.8097L6.63333 75.6782L1 77.9412L4.00444 82.4671L7.38444 80.3121L11.14 80.9585L16.3978 83.9758L20.9044 82.8443L22.4067 84.3529L21.28 88.1246L16.3978 91.1419L12.2667 90.3875L9.26222 91.1419V93.782L12.6422 94.9135L17.1489 93.782L20.9044 96.4221H23.5333L27.2889 100.948L32.1711 102.08L35.1756 105.851L39.6822 108.114H45.6911L50.5733 106.228H56.9578L59.5867 103.588H63.7178L69.7267 104.343L71.6044 102.08H73.4822L76.1111 103.588L79.4911 99.8166H81.3689V102.08L84.7489 102.834L86.2511 105.097H88.1289L89.2556 106.983L93.0111 108.663L96.3911 106.228V102.834H99.02L102.776 99.8166L102.024 97.5536L107.658 94.5363L110.287 96.045L114.042 94.5363L115.92 96.045V98.6851L118.924 100.948L121.929 100.194L123.056 96.045L126.436 91.8962L129.44 92.6505L132.82 99.8166H134.322L136.2 96.045L138.829 96.7993L140.331 99.8166H142.584L144.087 101.325L140.331 102.834V106.228L143.336 110L146.34 109.246L149.344 103.588H152.349L155.353 107.737L160.611 109.246V105.474L157.982 102.834V100.948H156.48L160.987 90.7647L163.991 90.0104L166.244 91.8962L168.498 90.7647L170 87.7474L168.498 84.7301L166.996 76.4325V74.9239L163.24 74.1695L158.358 73.0381L157.231 70.0208L153.851 69.2664L150.847 67.0035L152.349 64.7405V62.1003L148.218 61.346L147.467 58.3287H149.72L150.847 55.6886L152.349 50.7855L153.851 50.0311V47.391L149.72 43.9965L147.467 42.1107L143.336 41.3564L142.209 38.7163V33.436L138.829 29.2872L137.702 24.3841L139.58 20.2353L136.2 16.8408H133.947L132.82 18.3495V19.481H127.562L124.558 13.4464V7.0346Z" fill="#9CB8FC"/>
<path d="M17.1489 58.7059V61.346L18.2756 62.4775M18.2756 62.4775L22.7822 61.346H27.6644L32.1711 56.8201H34.4244H35.9267L38.5556 54.1799H40.8089H43.0622L47.1933 51.5398H52.0756L53.2022 54.1799L59.2111 55.3114L62.2156 52.6713L59.2111 49.2768H64.4689L67.0978 46.2595L65.9711 43.6194H68.6L70.4778 40.2249L65.9711 36.4533L62.2156 34.9446L64.4689 30.7958L67.8489 30.0415L70.4778 27.7785L72.3556 25.1384L71.6044 22.1211V16.0865L69.3511 13.4464L67.8489 8.92042L70.4778 10.4291L71.6044 8.16609L70.4778 4.77163V1H73.1067L74.6089 2.88581H79.8667L82.12 7.0346L84.3733 5.14879L87.7533 4.39446L90.0067 1H91.8844L94.1378 3.64014L97.8933 5.90311H102.776L108.409 4.39446H111.789H119.676L124.558 7.0346V13.4464L127.562 19.481H132.82V18.3495L133.947 16.8408H136.2L139.58 20.2353L137.702 24.3841L138.829 29.2872L142.209 33.436V38.7163L143.336 41.3564L147.467 42.1107L149.72 43.9965L153.851 47.391V50.0311L152.349 50.7855L150.847 55.6886L149.72 58.3287H147.467L148.218 61.346L152.349 62.1003V64.7405L150.847 67.0035L153.851 69.2664L157.231 70.0208L158.358 73.0381L163.24 74.1696L166.996 74.9239V76.4325L168.498 84.7301L170 87.7474L168.498 90.7647L166.244 91.8962L163.991 90.0104L160.987 90.7647L156.48 100.948H157.982V102.834L160.611 105.474V109.246L155.353 107.737L152.349 103.588H149.344L146.34 109.246L143.336 110L140.331 106.228V102.834L144.087 101.325L142.584 99.8166H140.331L138.829 96.7993L136.2 96.045L134.322 99.8166H132.82L129.44 92.6505L126.436 91.8962L123.056 96.045L121.929 100.194L118.924 100.948L115.92 98.6851V96.045L114.042 94.5363L110.287 96.045L107.658 94.5363L102.024 97.5536L102.776 99.8166L99.02 102.834H96.3911V106.228L93.0111 108.663L89.2556 106.983L88.1289 105.097H86.2511L84.7489 102.834L81.3689 102.08V99.8166H79.4911L76.1111 103.588L73.4822 102.08H71.6044L69.7267 104.343L63.7178 103.588H59.5867L56.9578 106.228H50.5733L45.6911 108.114H39.6822L35.1756 105.851L32.1711 102.08L27.2889 100.948L23.5333 96.4221H20.9044L17.1489 93.782L12.6422 94.9135L9.26222 93.782V91.1419L12.2667 90.3875L16.3978 91.1419L21.28 88.1246L22.4067 84.3529L20.9044 82.8443L16.3978 83.9758L11.14 80.9585L7.38444 80.3121L4.00444 82.4671L1 77.9412L6.63333 75.6782L11.14 76.8097L16.3978 77.9412H24.66L30.2933 79.827L37.4289 81.4883L38.5556 80.9585L40.4333 77.9412L45.6911 72.6609L44.5644 70.3979L40.4333 74.9239L35.9267 75.6782L32.1711 72.6609L27.6644 73.7924L25.4111 71.1523L22.7822 70.3979L19.7778 68.1349L18.2756 62.4775Z" stroke="#7B9AE3" stroke-width="2" stroke-linejoin="round"/>
</svg>
