<svg width="168" height="87" viewBox="0 0 168 87" fill="none" xmlns="http://www.w3.org/2000/svg">
<path d="M3 82.5L1 83L2.5 85.5L13 85L26 70.5L58 69.5L66 66L81.5 65.5L89.5 55L90.5 49L93.5 47.5L99 47L101 45.5H103.5L105 47L108 46.5L111 43.5L120 43L123 38.5V33L125 31L128.5 30.5L132.5 35L136 35.5L138 32L139.5 31.5L145 34L148 35.5L151.5 32.5L156.5 28.5L161.5 29L166.5 26.5L166 24.5V20.5L166.5 18L162 12L159.5 11H156.5L153 13L152 16.5L149 14.5H145L142.5 17L141 16L137.5 15.5V14L134 13.5L132 15L129.5 17L128 15.5L127 14L126 11L120 12.5L121 15L119 17.5L117.5 18.5V16L115 15.5L113 14.5L112.5 21L111.5 25H110L108 24L107.5 21.5L105.5 17L100 16.5L98.5 18.5H95.5L93 17L89.5 15.5H85.5L83.5 14L81.5 11.5V9L79 6.5H76L74 8L72 9L68 8.5L66.5 7.5L64 3L63 2H61.5L59.5 4H59L57 2L54.5 1.5L53.5 1L51.5 1.5L47.5 3.5V5L49 10V12L50.5 14V18L49 18.5V22L47.5 24.5H44L43 23.5H39.5L37 24.5L33.5 25.5L30.5 28L28 32H25.5L24 35.5L22 37H18.5L18 42H17.5L15.5 45L12.5 48H10L8.5 49.5L7.5 53L6 54L5.5 57.5L4 58V63.5L5 65.5V68.5L7 70V76L6 76.5L3 82.5Z" fill="#9CB8FC" stroke="#7B9AE3" stroke-width="2" stroke-linejoin="round"/>
</svg>
