<svg width="119" height="135" viewBox="0 0 119 135" fill="none" xmlns="http://www.w3.org/2000/svg">
<path d="M3.42308 71.35L2.73077 74.15L1.69231 78L2.73077 79.05L4.46154 81.85V86.4V90.95L6.53846 93.05V97.6L11.0385 101.1L11.3846 102.5L10 104.6L10.6923 108.45H14.5L15.5385 109.5L19.3462 109.15L22.1154 107.05H24.8846L25.5769 109.15L27.6538 110.9L28.6923 112.65L29.7308 114.4V116.15H28.6923V117.9L32.1538 121.4V123.5L33.8846 124.9L34.9231 123.5H37L39.0769 124.9L41.1538 123.5H42.5385H44.9615H47.7308L48.7692 121.4L50.1538 120.35L52.9231 119.65L54.3077 117.2L56.0385 116.15L58.1154 117.9V119.65L60.8846 121.4H63.6538V123.5H62.2692L60.8846 124.9L61.5769 127L65.3846 129.45V130.85L67.4615 133.3L71.2692 134L73.3462 132.6L75.4231 130.85L76.8077 129.45L78.1923 130.85H79.5769L80.9615 129.45L83.0385 131.9H85.1154L86.8462 132.6L87.5385 131.9H89.6154L91.6923 132.6L93.4231 130.85L96.8846 129.45L100 127.7L100.692 126.3L102.077 125.6L104.846 122.45L105.538 120.853V119.65L106.577 117.9L106.923 114.05L106.231 113.35L104.846 112.3V110.55L105.538 109.15L107.962 108.8L109 107.4L109.346 106.35L108.308 104.419L106.577 104.25L106.231 102.5L107.269 102.15L107.962 99.7L108.308 97.95L110.038 96.55V92.7L109.346 91.65V87.45L105.885 87.8L104.846 86.75L104.154 85.35L102.077 85L101.385 83.95L100 83.25V78.7L101.038 78.35L102.077 76.25L103.115 74.5L104.154 72.75V70.3L103.462 68.9L102.077 67.5L102.769 64.7L104.154 63.3L105.885 62.25L106.231 61.2L106.577 59.1L107.269 57.7L106.923 52.8L107.615 51.05V50L106.577 49.3L105.538 47.9L106.923 47.2L106.231 45.1L105.192 43.7L103.115 42.65V36.35L103.808 34.95L105.192 33.9L105.538 32.15L106.923 30.75H108.308L110.038 29.35L112.808 27.95L114.192 26.9V22.35H115.231L116.615 20.95L118 20.25V18.85L115.577 17.1L114.192 15.35L111.769 13.6L111.077 12.2L111.769 10.8L113.154 9.4V5.55L114.538 5.2V1.7H109.346L108.654 1H107.269L99.3077 6.6L96.8846 9.75H95.8462L93.0769 7.65L88.5769 8.7L82.3462 5.2H74.0385L71.9615 17.8L65.7308 23.75L61.2308 22.7L57.0769 23.05L55 19.9H33.8846L29.7308 23.4L26.2692 20.6L18.6538 22.35L17.9615 26.2L12.0769 31.1L11.3846 33.55L6.19231 40.2L5.5 44.05L2.38462 47.55L3.07692 51.05L1 52.45L1.34615 56.3L3.76923 59.1L3.42308 64L5.5 66.45V70.3L3.42308 71.35Z" fill="#9CB8FC" stroke="#7B9AE3" stroke-width="2" stroke-linejoin="round"/>
</svg>
