<svg width="166" height="128" viewBox="0 0 166 128" fill="none" xmlns="http://www.w3.org/2000/svg">
<path d="M23.041 127L18.9317 126.246V123.982L20.426 122.096L19.6788 117.192L17.0638 113.796L14.8223 112.665L14.4487 110.778L11.8337 110.024L14.4487 108.138L13.328 106.629L10.713 105.874H9.21868V101.347L7.72437 99.8383H6.60364L6.97722 94.9341L5.10934 93.8024L3.61503 93.0479L2.49431 91.9162L4.73576 90.0299V88.8982L2.12073 87.7665L1 85.503L2.86788 83.6168L5.10934 82.485L6.97722 79.8443L7.3508 76.4491L10.3394 77.5808H12.5809L14.4487 76.4491L16.6902 73.8084V71.5449H17.8109H20.426L23.4146 70.0359L27.5239 66.6407L27.8975 68.9042L29.3918 70.0359L33.5011 69.6587L35.7426 71.5449L37.6105 72.6767L38.7312 68.9042L40.2255 65.8862H47.697L49.5649 64L52.9271 66.6407H54.795L56.2893 65.1317L61.8929 65.509L62.6401 64V61.7365L64.8815 58.3413L68.2437 55.3234L69.738 53.8144L71.9795 50.4192L73.1002 48.5329L70.1116 46.6467L71.9795 45.1377L73.8474 44.006L73.1002 39.1018L73.8474 36.4611V34.5749L74.221 33.4431L74.5945 29.2934L80.1982 25.8982L83.5604 25.521L86.1754 27.0299L93.2733 28.9162H95.5148L97.0091 27.4072L98.5034 24.7665L100.745 22.8802L102.613 20.2395V17.976L104.854 16.8443V15.7126L103.36 13.8263V11.5629L105.601 8.92216L108.216 7.79042L109.337 6.65868V5.1497L108.59 4.01796V2.13174L109.711 1H112.699L114.567 2.88623L115.688 4.77246L119.797 6.65868L120.918 9.2994V13.8263L124.654 15.7126L129.51 20.6168V22.8802L128.39 25.521L126.895 27.4072L128.763 30.0479L131.752 33.0659L135.861 33.8204L136.608 39.1018L139.223 40.2335L143.333 44.006L145.2 48.1557L143.333 53.0599L145.2 56.8323L152.672 60.2275L155.287 64.7545L161.638 73.4311L165 77.9581L163.879 79.4671L154.913 77.9581L147.815 82.485L150.431 86.6347L149.31 88.1437L139.223 92.6707H135.861L131.005 84.3713H123.907L117.929 91.1617V94.5569L117.182 95.6886L112.326 93.8024L108.216 98.3293H105.975L102.986 92.6707H98.1298L97.0091 94.5569H90.2847V99.8383L84.6811 107.383H82.8132L79.451 106.629H75.3417L71.2323 108.892L67.8702 107.383L57.41 106.629L54.0478 106.251L49.9385 109.647L45.8292 114.551V120.964H43.2141L41.3462 119.455H39.1048L37.2369 122.85H35.369L31.2597 126.246L28.6446 124.737L23.041 127Z" fill="#9CB8FC" stroke="#7B9AE3" stroke-width="2" stroke-linejoin="round"/>
</svg>
