<svg width="174" height="108" viewBox="0 0 174 108" fill="none" xmlns="http://www.w3.org/2000/svg">
<path d="M44.1564 7.30952V3.52381L47.2836 1H49.16L56.9782 8.8869L59.48 8.57143L62.2945 6.67857L64.4836 7.625L64.7964 10.4643L66.6727 13.619L68.2364 12.9881L69.1745 10.7798L76.0545 10.1488L77.6182 11.7262L76.9927 14.25L77.6182 16.4583L80.12 15.8274H82.6218V17.4048L80.7455 19.2976L81.3709 22.1369L85.7491 19.6131L89.1891 20.244L93.88 19.2976L90.7527 23.0833L91.3782 25.6071L95.4436 25.2917L97.32 28.4464L101.698 29.0774L105.138 33.494L107.015 36.6488L104.2 42.3274L109.204 47.375L111.705 46.744L121.4 50.8452L127.029 48.3214L132.345 46.744L136.411 41.381L135.473 38.2262L137.975 37.2798L138.6 39.4881L140.789 41.6964L143.604 42.9583L145.793 42.6429L147.356 38.8571L152.047 36.9643L160.491 37.5952L167.684 37.9107L172.062 38.5417L173 41.381L172.062 43.2738L167.996 41.6964L165.807 42.6429L165.495 45.4821L163.618 46.744L162.68 52.1071L162.993 55.5774L164.869 56.8393L165.182 59.0476L159.865 60.9405L157.676 63.1488H155.175L152.985 61.8869L149.858 61.256L146.731 64.4107L141.102 65.9881L139.538 64.4107L137.349 61.8869L132.345 58.4167L127.029 58.1012L122.025 61.8869L120.775 64.0952L119.836 69.4583H116.396L115.458 71.6667L112.331 72.6131L110.142 75.4524V79.2381L108.578 79.5536L105.764 77.6607L103.262 77.3452L101.073 78.9226L94.8182 78.6071L92.9418 80.5L83.8727 84.6012L81.9964 89.0179L80.12 95.6429H77.3055L72.9273 99.4286L70.7382 103.214L66.36 104.792L64.4836 107H61.9818L60.7309 104.476H59.48L56.9782 106.685H53.5382L50.4109 104.792L47.9091 101.637H46.6582L41.9673 99.8584L39.7782 97.5357L39.1527 95.9583L41.9673 95.0119L44.1564 93.119L45.4073 89.9643L44.7818 85.5476L45.0945 82.0774L47.9091 78.6071L48.2218 74.8214L46.3455 66.619L40.0909 60.625L36.3382 59.0476L33.2109 60.625L29.7709 60.3095L21.64 53.0536L17.5745 50.8452L11.6327 49.8988L8.81818 52.4226L4.75273 53.6845L3.18909 53.0536L1 50.8452L1.31273 46.1131L8.50545 40.119L12.5709 38.2262L16.3236 33.1786L23.2036 30.6548L25.7055 28.4464L27.2691 26.2381L29.7709 27.1845L33.2109 25.9226L39.7782 20.5595H42.9055L44.1564 19.2976H47.9091L49.7855 16.1429L50.0982 14.25L49.16 13.619L47.5964 14.5655L45.72 13.9345L44.1564 11.0952V7.30952Z" fill="#9CB8FC" stroke="#7B9AE3" stroke-width="2" stroke-linejoin="round"/>
</svg>
