<svg width="172" height="116" viewBox="0 0 172 116" fill="none" xmlns="http://www.w3.org/2000/svg">
<path d="M160.877 34.5705L159.83 31.4233H156.339V33.8712H152.499L150.754 31.4233L149.008 29.6748L146.914 31.773V35.6196H145.168L144.819 37.3681L141.678 38.4172L140.979 33.1718L139.583 31.773V31.4233L136.092 28.6258L133.998 27.9264L134.696 23.7301L129.111 19.184H127.016L127.366 15.6871L127.016 12.5399L124.224 11.1411L121.431 11.8405L118.639 14.9877L111.657 12.5399L107.468 11.1411L102.93 12.5399L97.694 7.64417L92.4579 3.79755L89.3162 1.34969H85.1273H83.3819H79.193L73.9569 1L70.8152 3.79755L66.6263 6.2454L62.4374 7.29448L59.9938 8.69325L57.5503 12.8896L54.7577 17.7853L53.0123 19.8834V21.2822L54.7577 22.681V26.5276L54.0595 30.0245L50.5688 27.9264L46.3799 25.4785L42.191 24.7791L38.7002 25.4785L36.9548 27.5767L33.115 29.3252L28.577 28.2761L23.6899 29.3252L25.4353 32.4724L29.9733 34.5705L34.1622 36.319L33.115 38.7669L28.577 41.5644L23.6899 44.7117L20.1992 46.1104V49.6074L21.5955 54.8528V58.3497L23.6899 61.4969L22.9918 64.2945L20.1992 66.7423L16.3593 69.1902L13.2177 70.9386L9.02875 76.8834L5.53799 78.6319L3.44353 80.0307L2.3963 82.8282V85.9755L4.83984 88.4233L4.14168 90.5215V96.8159L5.53799 99.6135H2.3963L1 101.362L2.3963 105.209L3.44353 107.307L6.58522 109.405H9.02875L10.4251 111.153H15.3121L17.4066 115L19.501 113.252L22.6427 112.552L24.7372 109.405H26.4825L28.577 111.853L32.0678 113.951H36.6058L41.8419 112.552H44.9836H52.3142L56.8522 115L63.4846 112.552L70.117 109.405H75.7023H82.3347L87.5708 107.307L85.8255 102.761L86.8727 100.313V94.3681L84.4292 92.6196L85.8255 90.5215L84.4292 88.4233L80.9384 86.3251L79.8912 83.8773L82.3347 82.4785H84.4292L85.1273 80.7301L82.3347 77.9325L79.8912 76.5337V75.135H81.6366V73.7362L80.9384 71.9877V69.8896H81.6366L83.0329 71.638L85.8255 71.9877L88.9671 70.589V69.5399H96.6468L98.0431 68.1411L101.883 68.4908L103.977 70.589L106.77 69.5399L109.563 69.8896V70.589L113.402 69.1902L116.195 68.1411L120.384 68.4908L124.224 70.589L127.016 68.4908H129.809L130.507 73.0368H132.253L132.951 71.9877L133.998 73.0368L132.951 75.135L134.696 77.9325L137.489 79.3313V81.4294L134.696 82.4785L135.394 84.5767L138.536 85.6258L139.583 83.8773L140.281 82.4785H142.027L142.725 84.5767L144.819 85.6258L147.263 85.2761L148.31 83.8773H151.103L152.848 84.5767L154.943 82.8282L155.641 79.681L159.83 77.5828L158.782 76.8834V74.7853L156.339 72.6871V69.1902V67.7914L158.084 66.3926H163.32L165.764 69.1902H169.604L169.953 66.3926V63.2454L168.906 60.4478L169.953 60.0982L171 57.6503V54.8528L169.255 51.7055L165.415 50.3067L165.764 42.2638V38.0675L168.207 35.9693L167.16 34.5705L164.368 34.2209L162.622 35.9693L160.877 34.5705Z" fill="#9CB8FC"/>
<path d="M3.44353 80.0307L1 78.6319M3.44353 80.0307L5.53799 78.6319L9.02875 76.8834L13.2177 70.9386L16.3593 69.1902L20.1992 66.7423L22.9918 64.2945L23.6899 61.4969L21.5955 58.3497V54.8528L20.1992 49.6074V46.1104L23.6899 44.7117L28.577 41.5644L33.115 38.7669L34.1622 36.319L29.9733 34.5706L25.4353 32.4724L23.6899 29.3252L28.577 28.2761L33.115 29.3252L36.9548 27.5767L38.7002 25.4785L42.191 24.7791L46.3799 25.4785L50.5688 27.9264L54.0595 30.0245L54.7577 26.5276V22.681L53.0123 21.2822V19.8834L54.7577 17.7853L57.5503 12.8896L59.9938 8.69325L62.4374 7.29448L66.6263 6.2454L70.8152 3.79755L73.9569 1L79.193 1.34969H83.3819H85.1273H89.3162L92.4579 3.79755L97.694 7.64417L102.93 12.5399L107.468 11.1411L111.657 12.5399L118.639 14.9877L121.431 11.8405L124.224 11.1411L127.016 12.5399L127.366 15.6871L127.016 19.184H129.111L134.696 23.7301L133.998 27.9264L136.092 28.6258L139.583 31.4233V31.773L140.979 33.1718L141.678 38.4172L144.819 37.3681L145.168 35.6196H146.914V31.773L149.008 29.6748L150.754 31.4233L152.499 33.8712H156.339V31.4233H159.83L160.877 34.5706L162.622 35.9693L164.368 34.2209L167.16 34.5706L168.207 35.9693L165.764 38.0675V42.2638L165.415 50.3067L169.255 51.7055L171 54.8528V57.6503L169.953 60.0982L168.906 60.4479L169.953 63.2454V66.3926L169.604 69.1902H165.764L163.32 66.3926H158.084L156.339 67.7914V69.1902V72.6871L158.782 74.7853V76.8834L159.83 77.5828L155.641 79.681L154.943 82.8282L152.848 84.5767L151.103 83.8773H148.31L147.263 85.2761L144.819 85.6258L142.725 84.5767L142.027 82.4785H140.281L139.583 83.8773L138.536 85.6258L135.394 84.5767L134.696 82.4785L137.489 81.4294V79.3313L134.696 77.9325L132.951 75.135L133.998 73.0368L132.951 71.9877L132.253 73.0368H130.507L129.809 68.4908H127.016L124.224 70.589L120.384 68.4908L116.195 68.1411L113.402 69.1902L109.563 70.589V69.8896L106.77 69.5399L103.977 70.589L101.883 68.4908L98.0431 68.1411L96.6468 69.5399H88.9671V70.589L85.8255 71.9877L83.0329 71.638L81.6365 69.8896H80.9384V71.9877L81.6365 73.7362V75.135H79.8912V76.5337L82.3347 77.9325L85.1273 80.7301L84.4292 82.4785H82.3347L79.8912 83.8773L80.9384 86.3252L84.4292 88.4233L85.8255 90.5215L84.4292 92.6196L86.8727 94.3681V100.313L85.8255 102.761L87.5708 107.307L82.3347 109.405H75.7023H70.117L63.4846 112.552L56.8522 115L52.3142 112.552H44.9836H41.8419L36.6057 113.951H32.0678L28.577 111.853L26.4825 109.405H24.7372L22.6427 112.552L19.501 113.252L17.4066 115L15.3121 111.153H10.4251L9.02875 109.405H6.58522L3.44353 107.307L2.3963 105.209L1 101.362L2.3963 99.6135H5.53799L4.14168 96.8159V90.5215L4.83984 88.4233L2.3963 85.9755V82.8282L3.44353 80.0307Z" stroke="#7B9AE3" stroke-width="2" stroke-linejoin="round"/>
</svg>
