<svg width="100" height="133" viewBox="0 0 100 133" fill="none" xmlns="http://www.w3.org/2000/svg">
<path d="M98.0607 59.4317L99 63.8297L98.0607 64.7722L96.1821 66.0288H93.0511L91.4856 66.9712L89.9201 69.1703V74.1966L89.2939 76.7098L85.5367 78.2806L83.0319 80.7938L79.2748 81.1079L74.5783 82.6787L72.6997 84.2494L71.7604 87.3909L72.3866 93.0456L71.7604 96.5012L69.5687 99.3285L70.508 101.842L73.9521 101.528V104.041L71.1342 106.24L70.1949 108.753L72.3866 111.58L71.4473 114.408L70.1949 116.921L68.3163 114.408H65.8115H57.6709L55.7923 116.921L53.6006 117.863L48.9042 118.492L48.278 116.921L46.7125 116.293L45.147 116.921L40.7636 125.403L37.9457 128.859L36.0671 127.602H33.5623L26.6741 132L24.7955 129.487L25.4217 127.602L26.6741 126.659H28.5527V125.403L27.6134 125.089V123.518L29.1789 122.261L27.6134 121.633H25.4217L24.7955 121.005L23.8562 118.806L21.6645 116.293L20.099 115.664L18.8466 114.408L17.9073 113.465L18.8466 112.209L20.099 110.324L21.0383 109.381L18.8466 109.067V107.811L20.099 106.24L22.2907 107.496H24.1693L25.4217 105.612L26.0479 102.156H29.1789L29.8051 99.9568L31.0575 98.0719L29.8051 96.5012L26.0479 96.1871L24.7955 95.2446L22.2907 93.3597L21.0383 91.789L18.8466 90.5324L16.655 92.4173L15.4026 91.1607L12.5847 89.5899L10.0799 88.3333V85.8201L8.20128 84.8777L6.94888 81.1079L3.19169 79.8513V75.7674L1.6262 74.8249L1 73.5684L4.75719 71.6835L3.81789 71.0552V69.1703L1.6262 67.2854V64.1439V62.8873L3.19169 61.6307H7.88818L10.0799 64.1439H13.524L13.8371 61.6307V58.8034L12.8978 56.2902L13.8371 55.976L14.7764 53.777V51.2638L13.2109 48.4365L9.76677 47.1799L10.0799 39.9544V36.1847L12.2716 34.2998L11.3323 33.0432L8.82748 32.729L7.26198 34.2998L5.69649 33.0432L4.75719 30.2158V24.8753L2.87859 22.6763V20.4772L3.81789 19.8489L5.69649 21.4197H7.88818L8.51438 19.2206H11.9585L14.1502 20.4772H15.4026V18.2782L18.8466 17.0216L20.4121 15.4508L21.0383 12.9377L25.4217 9.16787V8.53957L24.4824 7.59712V5.71223H26.9872V4.14149V3.82734L27.6134 1.6283L30.1182 1L31.0575 2.88489L33.2492 3.82734H35.4409L36.0671 2.25659L37.0064 1.6283L37.9457 3.82734L37.0064 4.14149V5.71223L38.2588 7.59712L41.7029 7.91127L43.2684 10.1103H48.278L51.4089 9.16787L53.2875 7.91127V6.65468H57.984L61.115 7.91127V10.1103L63.3067 12.6235V16.3933L64.8722 18.5923L62.6805 20.7914V22.6763L64.246 24.8753L64.8722 29.9017L66.4377 30.53L67.0639 33.6715H69.5687L71.4473 35.5564L73.3259 38.3837V39.3261L71.4473 40.5827V43.0959L75.8307 43.7242L78.3355 43.0959L79.901 45.6091V47.8082L83.0319 50.3213L86.7891 50.0072L88.6677 51.8921L88.3546 54.4053L89.607 56.2902H97.4345L98.0607 59.4317Z" fill="#9CB8FC" stroke="#7B9AE3" stroke-width="2" stroke-linejoin="round"/>
</svg>
