<svg width="101" height="132" viewBox="0 0 101 132" fill="none" xmlns="http://www.w3.org/2000/svg">
<path d="M47.2257 117.499L44.9144 114.412V111.326L46.4553 109.783L47.2257 107.469V104.769L44.144 102.454L42.2179 98.9822L44.144 96.6677V94.7389L42.6031 93.1958V90.8813L38.751 87.4095L36.0545 84.3234L34.1284 82.3947H31.8171L29.8911 83.9377L26.4241 82.3947L25.6537 78.9228L26.4241 74.6795L27.1946 73.5223V71.2077H23.7276V72.365L19.8755 73.5223L17.179 71.5935L14.8677 71.2077V68.8932L12.1712 66.5786L11.0156 65.0356V62.3353L9.85992 60.7923H6.77821L5.62257 58.4777L3.31128 56.1632L1.38521 55.3917L1 54.6202V50.7626L2.54086 49.2196V46.5193L1.38521 44.9763V42.276L2.54086 41.1187V39.5757L3.6965 38.0326L4.08171 35.3323L5.62257 34.5608L7.16342 33.4036H9.08949L9.47471 30.3175L10.6304 28.3887L11.786 27.2315H14.0973L15.2529 28.3887H21.4163L22.9572 26.8457L24.1128 27.6172L25.6537 28.3887L27.5798 26.8457H29.5058L34.5136 27.6172L36.0545 27.2315L36.8249 26.8457H39.1362L40.2918 26.0742H45.2996L46.07 23.3739L45.2996 21.8309L42.9883 21.4451L41.8327 18.7448L42.9883 16.0445L44.144 14.8872L44.9144 12.5727V10.2582L44.144 9.10089L45.2996 7.55786L46.07 6.78635L47.2257 5.24332L46.07 3.31454L46.8405 1.77151L47.6109 1L52.6187 1.38576L54.93 1.77151L55.3152 2.92878H57.2412L59.5525 4.47181H60.7082L62.249 7.55786L63.7899 10.6439V13.3442L64.9455 17.5875V21.4451L66.8716 22.9881L67.2568 24.9169L65.716 27.2315L63.7899 27.6172L64.5603 28.7745V31.4748H65.716L66.8716 33.0178H70.7237L71.1089 34.5608L69.9533 35.7181L68.7977 36.4896L66.8716 36.8754V38.8042L68.0272 39.5757L68.7977 41.5045L71.1089 43.4332H73.8054L75.7315 44.5905L77.2724 46.1335V48.8338L77.6576 50.7626L78.8132 49.6053H81.1245L80.7393 52.3056V55.0059H81.8949L83.0506 53.0772H87.2879L88.8288 53.8487L91.5253 54.6202V55.7774L93.8366 56.9347H95.7626L97.3035 59.2493L98.8444 60.4065V63.4926L100 64.6498L99.6148 67.7359L98.0739 68.1217L94.9922 69.6647V70.822L96.1479 74.6795V76.2225L97.3035 77.7656V80.8516L96.1479 81.2374V83.9377L94.9922 85.8665H92.2957L91.5253 85.095H88.8288L86.9027 85.8665L84.2062 86.638L81.8949 88.5668L79.9689 91.6528H78.0428L76.8872 94.3531L75.3463 95.5104H72.6498L72.2646 99.368H71.8794L70.3385 101.682L68.0272 103.997H66.1012L64.9455 105.154L64.1751 107.855L63.0195 108.626L62.6342 111.326L61.4786 111.712V115.955L62.249 117.499V119.813L63.7899 120.97V125.599L63.0195 125.985L60.7082 130.614L59.1673 131L56.0856 126.757L52.2335 125.985L49.1517 122.513V119.813L47.2257 117.499Z" fill="#9CB8FC" stroke="#7B9AE3" stroke-width="2" stroke-linejoin="round"/>
</svg>
