<svg width="149" height="132" viewBox="0 0 149 132" fill="none" xmlns="http://www.w3.org/2000/svg">
<path d="M31.4138 14.3241L34.6724 12.5235L36.8448 12.8837L41.9138 6.76177L44.0862 5.68144H54.9483L57.1207 6.76177L61.1034 13.6039L65.0862 13.964L67.2586 12.8837L68.3448 11.4432L73.4138 14.3241L75.5862 17.9252L79.2069 17.205L81.0172 13.6039L90.431 7.48199H97.6724L102.017 4.60111L104.914 1H112.155L114.328 6.04155L115.776 6.76177H119.397V14.3241L126.638 22.2465L133.155 24.0471L140.397 31.2493L141.845 34.8504L139.31 37.7313L140.759 39.5319L138.224 44.5734L139.31 45.2936L140.759 46.0138V49.2548L138.948 53.9363L140.397 58.2576L139.31 60.7784L137.5 63.6593L136.776 67.2604L137.5 71.2216L139.31 72.662L140.397 74.1025L140.034 75.1828V76.9834L145.828 82.385L148 85.626L146.914 87.4266V89.5873L148 91.0277L147.276 92.4681L145.828 94.9889L147.276 96.7895V98.2299L145.103 99.6704L141.483 100.751H135.69L133.879 98.2299L129.897 97.8698L128.448 95.7091V93.9086L129.534 93.5485L128.448 91.0277L127.362 91.7479L126.638 93.5485H124.103L121.569 92.4681L120.483 90.3075L117.586 91.0277L116.862 93.5485V93.9086V95.7091H113.966V97.8698L115.052 98.9501V99.6704L109.983 103.992L109.259 106.873L107.448 108.673L103.466 110.114V112.634H102.017L99.4828 111.194H95.5L94.7759 113.715H92.2414L90.069 111.914L88.9828 112.634V115.155L91.1552 117.676V123.798H87.5345V126.319H83.5517L81.7414 123.798L79.931 121.997L77.7586 124.158V128.119H75.9483L75.5862 129.92L72.3276 131L71.6034 125.598L70.1552 124.158V123.798L66.5345 120.917L64.3621 120.197L65.0862 115.875L59.2931 111.194H57.1207L57.4828 107.593L57.1207 104.352L54.2241 102.911L51.3276 103.632L48.431 106.873L41.1897 104.352L36.8448 102.911L32.1379 104.352L26.7069 99.3102L21.2759 95.349L18.0172 92.8283H13.6724H11.8621V90.3075L10.7759 89.2271L9.68966 88.1468L11.8621 86.7064L10.7759 85.626V84.1856L12.5862 82.0249L15.4828 83.8255L20.9138 83.4654L22.3621 82.0249L25.9828 78.7839V73.3823L25.2586 72.3019V70.1413H29.6034L31.0517 68.3407L28.1552 66.1801L27.7931 65.4598H31.0517L31.4138 64.3795L29.6034 62.9391L28.1552 61.1385L27.7931 59.6981L28.8793 58.6177L28.5172 57.5374L27.7931 56.4571L25.2586 57.5374L22.3621 57.8975L19.4655 54.6565L17.6552 52.4958V47.8144L16.569 46.7341L14.3966 46.374L13.6724 47.0942L11.8621 46.374L10.4138 44.2133L6.06897 43.4931L2.81034 42.4127V39.5319L1.72414 38.0914L1 37.0111L3.53448 33.41L4.98276 33.0499V31.6094H4.25862V26.928L6.06897 25.8476L8.24138 24.4072L10.7759 22.6066L12.2241 20.446H14.0345L16.2069 21.5263L18.0172 19.3657L18.3793 17.5651H20.1897L21.2759 15.4044L22.7241 15.7645L23.4483 15.4044V13.964L24.5345 12.5235L27.7931 15.4044L31.4138 14.3241Z" fill="#9CB8FC" stroke="#7B9AE3" stroke-width="2" stroke-linejoin="round"/>
</svg>
