<svg width="71" height="135" viewBox="0 0 71 135" fill="none" xmlns="http://www.w3.org/2000/svg">
<path d="M48 123.121V124.62H46L43.6667 125.96L43 128.305L41 126.965H38.3333L36.6667 128.64L35.6667 127.97L33.3333 127.635V126.63L31 126.295L29.6667 127.3L28 128.64L27 127.635L26.3333 126.63L25.6667 124.62L21.6667 125.625L22.3333 127.3L21 128.975L20 129.645V127.97L18.3333 127.635L17 126.965L16.6667 131.32L16 134H15L13.6667 133.33L13.3333 131.655L12 128.64L8.33333 128.305L7.33333 126.965L5.66667 124.62L4.33333 122.275L3.33333 119.929L1.33333 118.254L2.33333 114.904V111.554L3 110.549L1.33333 108.539V106.194L2.33333 105.524L1.33333 104.519V99.1587L2.33333 98.4887V96.4786L1 95.1385L2.33333 94.1335L3 91.4534V88.4383L2.33333 87.4333V84.0831L4 82.7431L4.66667 81.738V76.7128L4 75.0378L3 71.6877L2.33333 68.3375L1.33333 64.6524L2.33333 63.3123L4.66667 60.9673L5.33333 58.9572L6 56.9471L4.66667 55.272L5.33333 52.927L6 51.9219V49.9118L4 47.2317V43.5466L3 42.8766L3.66667 37.8514L5.33333 36.5113L6 34.1662L6.66667 33.1612L6 31.1511V29.8111L8.66667 29.1411L7.33333 27.466L6.33333 27.131L6.66667 25.4559H7.33333L9.33333 25.1209L10.6667 24.1159L11.6667 22.7758L13.6667 20.4307H15.3333H18.3333V19.4257L19.3333 18.7557L20.3333 17.4156V16.4106H22L23.3333 14.7355V13.0605L26 11.7204L27 10.3804V9.0403L28.3333 8.70529H30L30.3333 6.69521V5.69018H31.6667L33.6667 5.02015V4.35013L35 4.01511L36.3333 4.68514H38L39 4.01511L39.6667 3.01008H41.3333L42.3333 2.00504L43.6667 1L45 3.01008L46 5.02015L48 6.02519L49 7.36524L49.3333 9.0403L48.6667 10.3804L47.3333 11.3854L48 13.3955L49.3333 14.7355L50.6667 17.4156L53.3333 18.7557L54 20.4307L58 24.1159L59.3333 23.4458L59.6667 22.7758H61L62 23.7809V25.4559L62.6667 26.461V29.4761L63.3333 30.4811V33.4962V36.8463L61.6667 37.1814L59.3333 38.1864V39.1914L60.3333 40.5315L59.3333 42.8766L58 43.8816L59.3333 45.5567L61 47.9018L62 50.2468L63.6667 50.9169L66.3333 52.2569L67.6667 53.262L69.3333 55.272V56.6121L67.3333 57.2821L66.6667 57.9521L67.3333 60.2972L68.3333 62.3073L67.6667 63.6474L67 65.6574L67.3333 69.0076L66 69.3426L64.6667 70.3476L65.3333 72.3577L66.6667 74.3678L68 76.7128V79.3929L69.3333 80.733V82.7431L70 84.0831L69.3333 84.4181V86.7632L70 88.7733L69.6667 92.1234L68.6667 92.4584L66.3333 93.4635L65 94.1335L63 93.4635L61.3333 92.1234H60.3333L58.3333 92.4584L58 93.7985H54.6667L54 94.1335L53.3333 96.4786L51 98.1536L50.3333 99.4937L50 110.214L49.6667 111.554L50.3333 112.559L50 114.904L49.6667 115.909L49.3333 120.599L48 123.121Z" fill="#9CB8FC" stroke="#7B9AE3" stroke-width="2" stroke-linejoin="round"/>
</svg>
