<svg width="176" height="92" viewBox="0 0 176 92" fill="none" xmlns="http://www.w3.org/2000/svg">
<path d="M138.225 70.5455L140.609 71.9091L142.652 70.5455L146.057 68.8409L150.143 63.0455L153.207 61.3409L156.953 58.9545L159.677 56.5682L160.358 53.8409L158.315 50.7727V47.3636L156.953 42.25V38.8409L160.358 37.4773L165.125 34.4091L169.552 31.6818L170.573 29.2955L166.487 27.5909L162.061 25.5455L160.358 22.4773L165.125 21.4545L169.552 22.4773L173.297 20.7727L175 18.7273V16L171.935 13.2727L167.509 14.2955L164.444 16L162.061 14.6364H157.634L156.953 13.2727L151.505 12.9318L149.462 9.52273L150.143 8.84091V6.45455L148.44 5.09091L141.971 2.36364L133.798 1L127.329 5.09091L129.712 8.84091L128.691 10.2045L119.497 14.2955H116.432L112.006 6.79545H105.536L100.088 12.9318V16L99.4071 17.0227L94.9804 15.3182L91.2348 19.4091H89.1918L86.4677 14.2955H82.0411L81.0196 16H74.8904V20.7727L69.7828 27.5909H68.0802L65.0157 26.9091H61.2701L57.5245 28.9545L54.4599 27.5909L44.9256 26.9091L41.8611 26.5682L38.1155 29.6364L34.3699 34.0682V39.8636H31.9863L30.2838 38.5H28.2407L26.5382 41.5682H24.8356L21.09 44.6364L18.7065 43.2727L13.5988 45.3182L12.9178 46.6818L10.8748 49.0682L8.15069 50.4318L6.78865 48.3864L5.76712 47.7045L4.06458 48.7273L2.36204 50.4318L1 51.7955L3.38356 54.5227L6.78865 55.8864L9.85323 58.6136L11.2153 61V63.3864L11.8963 65.0909L14.2798 66.1136H20.0685H22.7926L25.5166 64.0682L26.5382 65.0909H36.0724L38.7965 63.3864H42.5421L44.5851 65.0909L45.6067 64.0682L48.6712 65.0909L51.0548 64.0682L52.7573 61.3409H55.4814H60.2485L61.9511 64.0682L63.6536 67.4773H68.7613L70.8043 68.1591L72.8474 66.4545L74.8904 68.1591L74.2094 69.5227V71.9091L76.593 70.5455L78.9765 67.4773L82.0411 68.1591H85.4462V71.9091L83.7436 72.9318V74.6364L86.4677 77.7045L89.8728 79.0682V82.1364L88.5108 83.8409L89.8728 87.5909H97.7045L99.4071 89.2955L102.131 91L106.217 86.2273H112.006L117.114 88.2727L121.54 87.5909L123.924 86.2273L124.605 83.8409V82.8182V81.1136L125.626 79.0682L124.605 77.7045V76.6818L126.307 74.6364H129.372L130.734 76L132.096 74.6364L133.798 72.9318L136.182 70.5455H138.225Z" fill="#9CB8FC" stroke="#7B9AE3" stroke-width="2" stroke-linejoin="round"/>
</svg>
