<svg width="112" height="145" viewBox="0 0 112 145" fill="none" xmlns="http://www.w3.org/2000/svg">
<path d="M8.22388 6.91724L2.31343 7.57471L4.61194 10.8621L3.95522 13.8207L1 16.7793V20.7241L1.32836 22.6966L5.92537 24.0115L8.22388 27.6276V31.2437L5.92537 32.5586L3.95522 33.5448V34.2023L6.25373 35.1885L8.55224 38.8046V41.1057L8.22388 43.7356L8.55224 45.3793L11.5075 45.708L11.8358 49.9816L10.8507 51.2966L9.86567 52.9402L7.89552 54.5839V56.5563L9.20895 58.2V59.5149L6.91045 61.1586V62.1448H8.22388L8.55224 64.1172L7.23881 64.7747L5.92537 66.0897V67.0759L8.55224 68.0621H11.8358L12.4925 72.3356V73.6506L14.4627 74.308L15.4478 75.9517L16.1045 76.2805V82.1977L17.0896 83.1839V86.1425L16.1045 87.1287H14.4627L14.791 92.0598L15.7761 93.7034L17.0896 94.3609V96.6621L15.7761 98.3057L13.4776 100.607L11.1791 101.264L10.8507 102.579L8.22388 103.237L6.91045 104.88H4.9403V106.524L5.59701 107.51L5.26866 109.483L4.9403 111.126L6.91045 111.455V114.085H7.23881L8.8806 115.071L8.22388 116.386L7.23881 118.03L7.56716 119.674L9.53731 121.317L10.194 122.303L8.8806 124.276L9.53731 125.262L10.5224 126.577L10.194 128.549L7.89552 129.864L7.56716 132.166L8.8806 132.823L10.194 135.124L12.1642 136.439L15.4478 140.055L16.1045 143.014L18.7313 144H20.7015L22.3433 143.014L24.3134 140.713V138.74H25.2985H27.597L30.2239 137.425L33.8358 134.467L34.1642 136.439L35.4776 137.425L39.0896 137.097L41.0597 138.74L42.7015 139.726L43.6866 136.439L45 133.809H51.5672L53.209 132.166L56.1642 134.467H57.806L59.1194 133.152L64.0448 133.48L64.7015 132.166V130.193L66.6716 127.234L69.6269 124.605L70.9403 123.29L72.9104 120.331L73.8955 118.687L71.2687 117.044L72.9104 115.729L74.5522 114.743L73.8955 110.469L74.5522 108.168V106.524L74.8806 105.538L75.209 101.922L80.1343 98.9632L83.0896 98.6345L85.3881 99.9494L91.6269 101.593H93.597L94.9104 100.278L96.2239 97.977L98.194 96.3333L99.8358 94.0322V92.0598L101.806 91.0736V90.0874L100.493 88.4437V86.4713L102.463 84.1701L104.761 83.1839L105.746 82.1977V80.8828L105.09 79.8965V78.2529L106.075 77.2667H108.701L109.358 75.623L110.672 72.9931L111 70.6919L109.03 68.3908V67.0759L105.418 64.7747L104.761 62.8023L106.075 61.4874H107.388V59.5149H104.761L102.134 57.8713V56.2276L100.164 54.5839L98.5224 55.5701L97.209 57.8713L94.5821 58.5287L93.2687 59.5149L92.2836 61.4874H89.6567H87.3582H86.0448L84.0746 62.8023L82.1045 61.4874H80.1343L79.1493 62.8023L77.5075 61.4874V59.5149L74.2239 56.2276V54.5839H75.209V52.9402L74.2239 51.2966L73.2388 49.6529L71.2687 48.0092L70.6119 46.0368H67.9851L65.3582 48.0092L61.7463 48.3379L60.7612 47.3517H57.1493L56.4925 43.7356L57.806 41.7632L57.4776 40.4483L53.209 37.1609V32.8874L51.2388 30.9149V26.6414V22.3678L49.597 19.7379L48.6119 18.7517L49.597 15.1356H47.6269L46.3134 13.8207H43.0299L42.0448 10.8621L41.3881 6.91724L35.806 2.31494H26.2836L23 4.61609H19.0597L17.7463 3.95862V1L14.1343 1.65747L12.8209 3.30115L10.194 4.61609L8.22388 6.91724Z" fill="#9CB8FC" stroke="#7B9AE3" stroke-width="2" stroke-linejoin="round"/>
</svg>
