<svg width="96" height="135" viewBox="0 0 96 135" fill="none" xmlns="http://www.w3.org/2000/svg">
<path d="M5.61754 13.6035L4.29825 10.2868H8.25614L10.8947 7.63342L9.24561 2.32668L10.8947 1H14.8526L16.5018 2.99002V4.31671L22.7684 6.30673L25.0772 4.98005L29.3649 5.64339L32.3333 9.29177L37.9404 10.2868L40.5789 12.6085H43.8772L47.8351 8.62843H50.4737L53.1123 13.2718L55.7509 15.9252L57.4 16.5885L61.3579 14.2668L63.6667 16.5885L66.9649 15.9252L69.2737 21.8953L75.5404 23.5536L76.8596 24.8803L79.4982 24.217L84.1158 20.2369H89.0632V21.2319L87.0842 25.8753V28.197L91.7018 34.1671L93.0211 35.4938L91.7018 41.1322V43.4539L89.0632 47.4339L86.0947 50.419L84.7754 54.0673L82.1368 55.0623L78.8386 57.384H76.2L76.8596 61.3641L80.4877 64.3491L88.0737 66.0075L91.7018 64.3491L93.0211 65.0125V67.0025L91.0421 70.6509H88.0737L82.7965 69.6559L80.4877 72.6409L78.8386 76.6209V79.9377L79.4982 83.9177L86.0947 85.9077L87.414 86.5711V90.2195L91.0421 95.5262V97.8479L89.0632 100.501V101.828L93.6807 101.165L95 101.828L94.6702 103.818L91.0421 106.803L91.7018 109.788L90.0526 111.115V115.426L88.0737 118.743L90.0526 123.718V126.372L88.7333 130.02L81.1474 131.015L75.2105 133.005L73.2316 132.673L69.2737 131.015L63.6667 134L61.3579 133.337L58.7193 131.015L57.7298 126.372L57.0702 123.055H48.8246L47.5053 121.065L47.8351 118.411L45.8561 116.421L41.8982 116.753L38.6 114.1V111.778L36.9509 109.125L34.3123 109.788L29.6947 109.125V106.471L31.6737 105.145V104.15L29.6947 101.165L27.7158 99.1746H25.0772L24.4175 95.8579L22.7684 95.1945L22.1088 89.8878L20.4597 87.5661V85.5761L22.7684 83.2544L21.1193 80.9327V76.9526L18.8105 74.2992V71.9776L15.5123 70.6509H10.5649L9.24561 68.9925L10.5649 66.6708L11.2246 65.3441L10.2351 64.0175V62.0274L11.2246 60.3691L9.24561 57.384L3.96842 52.409V50.7506L4.29825 49.7556L3.30877 48.4289L1.65965 47.1022L1 43.4539L1.65965 40.1372L3.30877 37.4838L4.29825 35.1621L2.97895 31.182L4.62807 26.8703V23.8853L3.30877 23.2219L2.3193 22.5586L4.62807 17.9152L3.30877 16.2569L5.61754 13.6035Z" fill="#9CB8FC" stroke="#7B9AE3" stroke-width="2" stroke-linejoin="round"/>
</svg>
