<svg width="129" height="135" viewBox="0 0 129 135" fill="none" xmlns="http://www.w3.org/2000/svg">
<path d="M109.085 11.2997V5.92593H107.284L101.879 4.58249L96.0248 2.79125L92.8723 1H87.9184H82.5142L77.5603 2.79125H71.7057H60.8972H51.8901H46.0355L39.7305 7.26936L38.8298 11.2997L37.4787 14.4343L32.0745 19.3603L27.1206 22.4949L23.5177 24.2862H20.3652L16.3121 22.4949L13.6099 20.7037H7.30496L2.35106 21.5993L1 24.2862L5.50355 36.3771V39.5118L2.35106 44.8855V46.6768L7.30496 52.9461L12.2589 59.6633V62.3502L15.4113 72.6498L18.5638 81.6061L21.7163 85.1886V87.8754H17.2128L15.4113 88.771V91.9057L18.5638 96.8316L20.3652 101.31L21.7163 104.892L24.4184 106.236L26.6702 108.923L29.3723 110.714L31.6241 108.027L33.4255 107.131L37.0284 108.923V112.505H38.8298L41.5319 115.192L40.1809 116.983L38.8298 118.327V122.805L40.1809 125.044L42.4326 123.7L48.2872 125.044V126.835L51.4397 129.074L53.6915 134L55.9433 131.761H59.5461L65.8511 132.657L69.4539 134H72.6064L76.2092 131.761V129.074L74.8582 126.835L72.6064 125.044V122.805L74.8582 121.461V119.222L76.2092 116.088L78.461 116.983H83.4149V115.192V112.505H87.9184V107.131H95.5745H98.2766H101.879L107.284 110.714H111.787L114.039 108.027V99.9663L116.291 98.6229L118.092 96.3838H120.794L122.596 93.697V88.771H124.397V84.7407H128V82.9495L127.099 82.0539V78.4714L125.748 76.6801H121.695L120.794 75.7845L121.695 71.7542L125.748 70.4108L127.099 68.1717L124.397 63.6936L119.894 62.3502L118.092 58.3199L116.291 54.7374L115.39 51.1549H111.787H103.23L101.879 42.1987V40.8552V38.1684L104.131 34.5859V31.0034L103.23 29.6599L100.528 26.5253V22.0471L104.131 18.0168L106.383 14.4343L109.085 11.2997Z" fill="#9CB8FC" stroke="#7B9AE3" stroke-width="2" stroke-linejoin="round"/>
</svg>
