<svg width="127" height="130" viewBox="0 0 127 130" fill="none" xmlns="http://www.w3.org/2000/svg">
<path d="M6.16224 111.294V106.499L6.8997 103.179L5.79351 100.965L2.84366 97.6455L1 95.4323V93.219L3.94985 86.5792L3.58112 80.6772L2.47493 77.7262L1.73746 74.0375V68.8732L2.47493 66.6599L9.11209 60.0202L15.0118 53.7493L20.9115 47.1095L26.4425 41.2075L33.8171 34.5677L37.8732 29.7723L42.6667 27.1902L46.354 24.6081L49.3038 20.9193L52.2537 16.4928L54.8348 16.1239L59.997 15.755L65.8968 15.0173L68.4779 10.5908L70.6903 8.37752L71.4277 6.90202V2.4755L72.5339 1L74.7463 2.10663L76.59 4.31988L78.8024 5.79539L80.646 3.58213L82.1209 2.84438L85.0708 4.31988V7.27089H86.5457L88.7581 9.48415L87.6519 10.9597L86.5457 12.0663V15.755L87.6519 17.5994L89.4956 16.4928L94.2891 17.5994V19.0749L96.8702 20.9193L98.7139 24.9769L100.558 23.1326H103.507L108.67 23.8703L111.619 24.9769H111.988L112.357 26.4524L111.619 27.1902L112.357 28.2968L113.832 29.7723L114.201 29.0346L116.782 28.2968L117.888 29.0346L118.257 30.5101H117.519V32.3545L115.676 33.0922V34.1988L116.782 35.3055V36.4121L115.676 37.5187L115.307 39.3631L116.413 40.8386V42.683H117.519L118.625 43.7896L119.363 45.634H120.838L122.313 46.3718L123.05 45.634H125.263L126 48.2161V50.0605L125.263 53.0115L124.525 54.8559L123.05 57.438L120.469 58.1758L118.257 59.6513H113.832H111.619L109.776 61.8646L110.145 62.9712L110.513 67.7666H109.038L105.72 68.5043L104.245 68.8732V72.1931L103.139 73.2997H101.664L100.926 75.1441H98.3451H97.2389L95.0266 75.8818V76.9885L93.1829 78.464L92.0767 79.5706V81.415H90.9705L88.7581 79.9395H86.9145L86.5457 78.8328L84.3333 78.464L79.5398 78.0951L78.8024 78.8328L78.0649 80.3084L79.1711 82.1527L78.0649 83.6282L77.3274 84.366L76.2212 85.8415L76.9587 86.9481V89.1614L76.2212 91.3746L75.115 92.4813L74.0089 95.0634L75.115 97.6455L77.3274 98.0144L78.0649 99.4899L77.3274 102.072H72.5339L71.4277 102.81H69.2153L68.4779 103.179L67.003 103.548L62.2094 102.81H60.3658L58.5221 104.285L57.0472 103.548L55.941 102.81L54.4661 104.285H48.5664L47.4602 103.179H45.2478L44.1416 104.285L43.0354 106.13L42.6667 109.081H40.823L39.3481 110.187L37.8732 110.925L37.5044 113.507L36.3982 114.983V116.458L35.292 117.565V120.147L36.3982 121.622V124.205L34.9233 125.68V129H33.4484L32.3422 128.262H29.0236L27.9174 126.418L24.9676 124.942H22.0177L17.9617 123.467V121.622L17.2242 118.671H14.2743L11.3245 117.934L9.11209 114.983L7.26844 113.507L6.16224 111.294Z" fill="#9CB8FC" stroke="#7B9AE3" stroke-width="2" stroke-linejoin="round"/>
</svg>
