<svg width="163" height="135" viewBox="0 0 163 135" fill="none" xmlns="http://www.w3.org/2000/svg">
<path d="M55.3919 120.438L54.0865 122.625V131.375V131.812L56.6973 131.375L61.0486 133.562L63.2243 134L66.7054 132.25L71.4919 127L72.7973 123.938L71.0568 120.438L72.7973 119.562L77.1486 117.812L75.8432 121.312L74.5378 126.125V132.25L77.1486 133.125L80.1946 129.188H83.6757L84.9811 130.5L89.7676 131.812L94.1189 130.5L96.2946 127.875V122.625L94.1189 119.562L95.4243 117.375L98.0351 118.25V121.312L99.3405 122.625L104.562 121.312H110.219L115.441 116.062H118.051H119.792L122.838 113H125.449H128.059L132.846 109.938H138.503L139.808 113L146.77 114.312L150.251 111.25L146.77 107.312H152.862L155.908 103.812L154.603 100.75H157.649L159.824 96.8125L154.603 92.4375L150.251 90.6875L152.862 85.875L156.778 85L159.824 82.375L162 79.3125L161.13 75.8125V68.8125L158.519 65.75L156.778 60.5L159.824 62.25L161.13 59.625L159.824 55.6875V51.3125L155.908 48.6875L154.603 46.0625L152.862 41.25L154.603 39.0625H158.519L156.778 35.5625V27.6875L157.649 25.0625L154.603 22V18.0625L155.908 14.5625L152.862 12.8125H150.251L147.205 15.875L145.03 18.0625L143.289 19.8125L141.549 18.0625H137.632L135.457 20.6875V22L136.762 23.75L135.457 26.375V28.5625V29.875L134.586 32.9375L131.541 34.6875L125.884 35.5625L119.357 32.9375H111.959L106.738 39.0625L103.257 36.875L101.081 34.6875H91.073L89.3324 29.875L91.073 27.6875V23.75L86.7216 22L83.2405 18.0625V15.875L85.4162 14.5625V9.75H81.0649L77.1486 8.875L74.1027 12.8125L71.0568 14.5625V11.5L71.927 9.75L69.3162 7.5625L66.7054 9.75L64.0946 8.875H57.5676L55.3919 4.5L53.2162 1H47.1243H43.6432L41.4676 4.5L38.4216 5.8125L34.5054 4.5L33.2 5.8125L30.5892 3.625H25.8027L22.3216 5.8125H10.1378L8.83243 4.5L5.35135 7.125L7.09189 10.625L4.04595 11.5L1 12.375V13.6875L1.87027 15.875V19.8125L5.35135 22L6.22162 29L7.09189 32.9375L10.1378 36V38.1875L11.8784 39.0625V43.4375V48.25H14.0541L14.9243 50.4375H18.8405L20.5811 49.125L23.1919 48.25L25.8027 50.4375L28.4135 51.3125L30.5892 48.25L32.3297 51.3125L34.5054 53.9375L37.5513 57.875L36.2459 60.9375V61.8125V67.0625V71.875L38.4216 78.4375H43.6432L45.8189 79.75H47.9946V78.4375H52.3459L54.0865 79.75L52.3459 82.8125L50.6054 85L52.3459 87.1875L55.3919 88.5H58.873V90.6875L60.6135 92.875V96.375L58.873 99V101.188L57.5676 103.375H53.2162L47.9946 104.25L46.6892 106L49.7351 111.25L55.3919 116.062V120.438Z" fill="#9CB8FC" stroke="#7B9AE3" stroke-width="2" stroke-linejoin="round"/>
</svg>
