<svg width="101" height="139" viewBox="0 0 101 139" fill="none" xmlns="http://www.w3.org/2000/svg">
<path d="M27.8433 9.25887L25.6269 11.2021L26.3657 12.1738L27.597 13.3883H30.306L31.0448 12.1738L33.5075 12.4167L34.7388 13.3883V15.3316L36.2164 16.789L34.7388 19.9468L36.2164 21.8901L35.2313 24.0762V28.2057L33.5075 30.3918L33.0149 32.578V34.2784L34.4925 35.7358L36.9552 36.2216L39.6642 39.8652L40.6493 42.5372L42.3731 43.0231L44.3433 41.0798L45.8209 41.3227L46.806 42.0514V45.695L45.3284 46.6667L46.0672 50.3103L44.5896 51.7677V52.7394H46.806L47.5448 54.1968L46.3134 58.0833L47.2985 60.0266L49.0224 60.7553L51.2388 62.4557L52.9627 62.9415H55.6716L57.6418 65.6135V73.8723L58.1343 75.5727L57.6418 77.0301L56.1642 78.0018L56.903 79.7021L60.3507 81.6454L62.0746 84.3174L61.5821 85.289H56.4104L55.6716 86.2606H53.209V84.0745L52.9627 83.3457L51.2388 81.8883L50.0075 81.6454L48.5299 83.3457L48.2836 84.8032L46.5597 85.289L45.3284 83.8316L43.3582 83.5887L42.6194 80.4309H41.3881L39.9104 82.3741H37.694L35.9701 84.5603H34.4925L34.2463 78.0018H32.7687L30.5522 78.9734L25.8731 81.8883L25.3806 85.289L25.8731 86.7465V89.9043L28.5821 93.305V94.7624L26.3657 96.7057L25.8731 98.6489L26.3657 100.835V102.293L23.6567 103.021L21.4403 102.778L18.9776 104.965V108.608L16.5149 112.009H13.806L13.0672 113.709L11.5896 115.167H10.6045V117.596L12.0821 119.296V121.482L10.6045 123.911L7.64925 124.397L5.18657 123.426L1.49254 124.397L1 125.855L2.97015 127.555L4.69403 131.684L7.40299 134.356L11.5896 135.328L13.806 136.785L18.2388 137.271L19.4701 136.785L19.2239 133.385L20.7015 131.684H21.9328V134.113L23.4104 135.328L25.8731 134.113L29.3209 130.956L34.2463 129.012L40.403 128.041L47.0522 132.17L48.0373 133.871V136.3V138H49.2687L50.9925 135.085L51.4851 130.47L50.2537 127.555L47.0522 127.312L46.806 125.855L47.2985 123.911V122.697L46.3134 121.725L46.0672 116.138L46.806 113.466H48.2836L48.7761 115.167L49.2687 117.839L51.2388 119.782H51.9776L54.4403 118.082L53.9478 117.11L53.4552 114.681L55.6716 114.438L56.4104 112.495L59.1194 109.823H60.3507L62.0746 110.794H63.0597V108.365L64.291 107.879L65.2761 109.337L66.2612 109.094L68.2313 106.179L72.9104 101.078V97.9202L71.4328 95.977L71.1866 94.2766L67.7388 92.3333L63.5522 88.9326L63.0597 86.2606L64.291 84.3174L66.2612 83.3457L67.7388 83.5887L68.2313 85.7748L70.2015 87.4752V89.9043L72.9104 91.8475L73.403 94.2766L75.8657 95.977L78.3284 94.7624L81.2836 90.633V87.4752L84.2388 84.0745V78.4876L85.2239 76.5443H88.9179L93.3507 74.844L96.306 73.8723V68.7713L97.0448 67.5567V65.1277L93.8433 62.4557L92.1194 59.5408L92.8582 58.5691L95.8134 58.0833H98.2761L99.0149 56.8688V55.6543L100 54.1968V52.2535L99.0149 51.039V49.8245H97.0448L95.3209 49.0957L94.3358 47.8812L95.3209 46.6667L96.306 44.9663L95.3209 44.2376H92.8582V44.9663H91.6269L90.3955 44.2376H87.4403L86.209 40.594V37.922V35.0071V34.5213L86.9478 32.8209L85.2239 30.6348L83.9925 29.1773L83.0075 27.477L81.7761 29.1773L80.2985 28.6915L78.8209 27.477L77.3433 27.9628L76.3582 28.6915H74.1418L73.6493 27.477H72.4179V24.805V22.3759L71.4328 21.8901V20.6755L69.709 18.9752L69.2164 16.789L68.7239 12.9025L66.7537 11.6879V9.50177L66.2612 8.28723V7.55851L67.9851 7.0727L69.709 6.58688L68.7239 4.64362H66.7537H62.5672L60.8433 3.91489L60.3507 2.70035V1L58.8731 1.48582H57.1493V1.97163L55.6716 2.70035L53.9478 1.48582L52.2239 1.97163H50.7463L49.5149 2.70035L50.5 4.64362V6.10106L48.7761 7.0727H45.0821L43.3582 6.10106L41.8806 5.61525L39.9104 7.0727L37.4478 6.58688H35.2313L33.0149 4.64362L30.306 4.1578V7.0727L27.8433 9.25887Z" fill="#9CB8FC" stroke="#7B9AE3" stroke-width="2" stroke-linejoin="round"/>
</svg>
