<svg width="162" height="131" viewBox="0 0 162 131" fill="none" xmlns="http://www.w3.org/2000/svg">
<path d="M2.92308 28.0359L1 26.1048L1.76923 24.1737L3.30769 21.0838L3.69231 18.3802L7.92308 19.1527L10.2308 17.6078L12.5385 15.6767L14.0769 14.1317L15.6154 15.6767H17.1538L18.6923 14.1317L21 16.8353H23.3077L25.2308 17.6078L26 16.8353H28.3077L30.6154 17.6078L32.5385 15.6767L36.3846 14.1317L39.8462 12.2006L40.6154 10.6557L42.1538 9.88325L45.2308 6.4072L46 4.64479H51.3846L52.1538 5.2485L54.8462 2.93114L56.7692 3.31737L59.0769 5.2485L60.6154 6.4072L65.6154 6.02096L67.5385 5.2485H69.4615L75.6154 7.9521L77.9231 6.4072L81.3846 6.02096L82.5385 3.31737H86L90.6154 6.79341L92.9231 5.2485L95.6154 2.15868L99.4615 1L100.615 1.77246L101 7.9521L102.538 10.2695L105.231 12.2006L106.769 14.1317V15.2904L106 16.4491V18.3802L109.462 20.6976L109.846 23.015L113.308 24.9461L112.923 27.2635L111.385 28.4222L110.615 29.5808L111.385 30.7395H114.846L115.615 29.5808H117.154V30.7395L121.769 30.3533L122.154 29.1946L123.308 28.4222L125.231 27.6497L127.154 25.7186L128.692 26.491L129.846 27.2635L132.154 27.6497V32.6707H132.923V34.2156L131.385 34.6018L128.692 38.4641L129.462 39.6228L130.615 41.1677V44.2575L134.077 45.4162L138.692 46.1886L140.231 48.506L142.154 49.2784L142.923 48.506L145.231 48.8922L146.385 50.0509V55.0719L148.308 57.3892L151.385 60.8653L154.462 60.479L157.154 59.3204L157.923 60.479L158.308 61.6377L157.154 62.7964L157.538 64.3413L159.077 66.2725L161 67.8174L160.615 68.9761H157.154L157.538 69.7485L160.615 72.0659L159.077 73.997H154.462V76.3144L155.231 77.4731V83.2665L151.385 86.7425L149.846 88.2874L144.077 88.6737L141 86.7425L139.077 89.0599V90.6048L140.231 91.7635L137.923 93.3084L139.077 94.4671L140.231 95.6257V98.3293H135.615L129.846 97.9431L126.385 101.033L121.769 103.737L117.154 104.895L114.462 106.44L111.769 111.075L108.692 116.482L106.769 118.799V120.344L108.692 121.889V126.138L107.923 130L104.077 127.683L99.4615 124.979L94.8462 124.207L91 124.979V121.889L87.5385 118.799L82.5385 119.958L79.0769 121.889L76.3846 120.344H71.3846L70.6154 118.799L64.4615 118.413L62.1538 114.551L62.9231 113.778V111.075L61 109.53L53.6923 106.44L54.8462 104.895L51.3846 100.26L44.8462 91.3772L42.1538 86.7425L34.4615 83.2665L32.5385 79.4042L34.4615 74.3832L32.5385 70.1347L28.3077 66.2725L25.6154 65.1138L24.8462 59.7066L20.6154 58.9341L17.5385 55.8443L15.6154 53.1407L17.1538 51.2096L18.3077 48.506V46.1886L13.3077 41.1677L9.46154 39.2365V34.6018L8.30769 31.8982L4.07692 29.9671L2.92308 28.0359Z" fill="#9CB8FC" stroke="#7B9AE3" stroke-width="2" stroke-linejoin="round"/>
</svg>
