<svg width="126" height="136" viewBox="0 0 126 136" fill="none" xmlns="http://www.w3.org/2000/svg">
<path d="M35.3801 7.52722V2.91977H39.6293L41.5607 1H45.4237L48.514 2.91977L55.081 4.07163L60.4891 7.52722L67.8287 8.67908L71.6916 12.1347H80.5763L89.0748 16.7421H95.6417L97.5732 15.9742L102.595 17.51L104.14 23.6533L107.231 25.5731L108.389 29.7966H114.184L116.115 27.8768L119.592 27.4928L121.91 30.1805H124.227L125 32.8682L123.455 36.7077L120.751 38.2436L119.978 40.5473V43.235H118.819L116.502 40.5473L114.956 41.6991L115.729 43.6189V46.6905L112.639 50.5301V52.0659L113.798 53.6017V55.1375L111.093 57.0573V58.5931L109.162 60.1289L108.389 62.8166V64.3524L106.844 65.5043L106.072 67.4241L104.14 68.192L102.981 68.9599H101.436L101.822 70.8797L102.595 71.6476V75.1032V76.639L103.368 77.0229V79.3267L102.595 81.2464V86.2378L102.981 87.0057L103.368 88.1576L104.14 88.9255V90.4613V91.6132L102.595 92.3811L102.209 94.3009L101.436 96.6046L100.664 97.7564L99.5047 100.444H96.4143L94.8692 101.596L93.7103 102.748H91.7788L91.0062 103.9L89.8474 104.668H87.9159L86.3707 103.9L84.8255 104.284V105.052L82.5078 105.819H80.9626V106.971L80.5763 109.275H78.6449L77.0997 109.659V111.195L75.9408 112.731L72.8505 114.266V116.186L71.3053 118.106H69.3738V119.258L68.215 120.794L67.0561 121.562V122.713H63.5794H61.648L59.3302 125.401L58.1713 126.937L56.6262 128.089L54.3084 128.473L52.7632 127.705V125.401V124.249L53.5358 121.946L51.9907 121.562L50.8318 122.33L49.2866 121.562L47.3551 120.026L46.5826 120.794H41.947L41.1745 121.562L39.243 122.33L38.4704 123.481H36.1526V125.401L34.2212 126.169H27.6542L26.8816 126.937H21.8598L21.0872 126.169L19.5421 125.785L18.7695 125.401L18.3832 126.553L16.838 127.705V128.473L18.3832 129.241L17.9969 131.16L16.4517 133.08L15.2928 134.232H12.9751L12.2025 135L10.6573 134.232H9.11215L8.33956 132.312L7.18069 131.16H6.02181V129.241L4.86293 127.705L5.24922 125.785L6.4081 124.633V123.481L5.24922 122.33V121.178L7.18069 120.41V118.49H7.95327L7.56698 116.954L6.4081 116.186L3.70405 116.954L3.31776 117.722L1.77259 116.186L1 115.034L1.77259 114.266L1.38629 112.731H4.09034L7.18069 110.811V108.507L6.02181 106.587L4.09034 105.052V103.132L6.02181 101.98V100.06L7.18069 97.3725L9.11215 98.1404H13.3614V96.6046V94.3009H17.2243V89.6934H23.7913H26.109H29.1994L33.8349 92.765H37.6978L39.6293 90.4613V83.5501L41.5607 82.3983L43.1059 80.4785H45.4237L46.9688 78.1748V73.9513H48.514V70.4957H51.6044V68.9599L50.8318 68.192V65.1203L49.6729 63.5845H46.1963L45.4237 62.8166L46.1963 59.361L49.6729 58.2092L50.8318 56.2894L48.514 52.4499L44.6511 51.298L43.1059 47.8424L41.5607 44.7708L40.7882 41.6991H37.6978H30.3583L29.1994 34.0201V32.8682V30.5645L31.1308 27.4928V24.4212L30.3583 23.2693L28.0405 20.5817V16.7421L31.1308 13.2865L33.0623 10.2149L35.3801 7.52722Z" fill="#9CB8FC" stroke="#7B9AE3" stroke-width="2" stroke-linejoin="round"/>
</svg>
