<svg width="107" height="136" viewBox="0 0 107 136" fill="none" xmlns="http://www.w3.org/2000/svg">
<path d="M10.7222 113.026H6.18518V111.908L7.15741 110.282L7.48148 106.704L6.83333 106.053L5.53704 105.078V103.451L6.18518 102.15L8.4537 101.825L9.42593 100.524L9.75 99.5485L8.77778 97.754L7.15741 97.5971L6.83333 95.9709L7.80556 95.6456L8.4537 93.3689L8.77778 91.7427L10.3981 90.4417V86.8641L9.75 85.8884V81.9854L6.50926 82.3107L5.53704 81.335L4.88889 80.034L2.94444 79.7087L2.2963 78.733L1 78.0825V73.8544L1.97222 73.5291L2.94444 71.5777L3.91667 69.9515L4.88889 68.3252V66.0485L4.24074 64.7476L2.94444 63.4466L3.59259 60.8447L4.88889 59.5437L6.50926 58.568L6.83333 57.5922L7.15741 55.6408L7.80556 54.3398L7.48148 49.7864L8.12963 48.1602V47.1845L7.15741 46.534L6.18518 45.233L7.48148 44.5825L6.83333 42.6311L5.86111 41.3301L3.91667 40.3544V34.5L4.56481 33.199L5.86111 32.2233L6.18518 30.5971L7.48148 29.2961H8.77778L10.3981 27.9951L12.9907 26.6942L14.287 25.7184V21.4903H15.2593L16.5556 20.1893L17.8519 19.5388V18.2379L15.5833 16.6117L14.287 14.9854L12.0185 13.3592L11.3704 12.0583L12.0185 10.7573L13.3148 9.45631V5.87864L14.6111 5.5534V2.30097H17.8519L19.1481 4.57767H20.7685L26.9259 1L30.4907 1.32524L32.1111 3.2767L34.7037 8.48058L37.6204 9.45631L40.537 12.7087L40.8611 20.1893L45.3981 27.0194L49.287 29.9466L53.1759 33.8495L54.4722 38.0777L49.6111 39.7039L46.6944 40.6796L43.4537 41.9806V44.2573L45.7222 47.835L48.6389 50.7621L47.3426 56.6165V59.8689L49.9352 60.1942L50.9074 61.1699L48.6389 66.699L51.5556 68.3252L54.4722 66.699L58.6852 67.6748L65.1667 68.3252L66.787 70.6019H71.6481L74.2407 69.301L78.7778 68.3252L82.9907 69.301V74.8301L85.2593 77.432L89.7963 76.1311L92.0648 78.0825L90.4444 82.3107L93.037 86.2136L94.6574 91.7427L96.9259 94.3447L96.2778 99.8738L94.9815 101.5L96.9259 108.655L99.1944 111.583L103.083 112.883V115.16L106 119.388L103.083 121.015L99.8426 121.99L96.9259 119.388L95.9537 120.689V121.99L95.3055 122.316L94.0093 121.99L93.037 123.942H91.4167L91.0926 125.568L89.4722 127.519L87.5278 126.544H85.9074L84.6111 128.495L82.3426 130.121L80.3981 131.422L78.7778 132.398L76.8333 132.073L75.8611 131.422L74.5648 130.772L72.9444 132.398L71.3241 133.049L70.3519 133.699L70.0278 134.675L66.1389 135V134.024H64.8426L64.1944 135H61.2778L60.6296 134.024L61.2778 133.049L62.5741 132.073L62.8981 130.121L59.9815 128.495L59.6574 126.544L56.7407 124.592V122.966L57.3889 121.99V121.015L56.0926 119.388L53.8241 117.762L52.5278 115.811L52.2037 110.607L51.2315 109.956L47.9907 110.932L45.7222 113.534L43.7778 114.835L39.8889 111.908H36.9722L36 114.184L33.0833 114.51L31.1389 115.811L25.9537 113.534H24.3333L22.713 114.184L18.5 114.51L17.2037 113.534L15.2593 111.908L13.6389 111.583L11.3704 113.534L10.7222 113.026Z" fill="#9CB8FC"/>
<path d="M6.18518 113.026L5.53704 114.51M6.18518 113.026H10.7222L11.3704 113.534L13.6389 111.583L15.2593 111.908L17.2037 113.534L18.5 114.51L22.713 114.184L24.3333 113.534H25.9537L31.1389 115.811L33.0833 114.51L36 114.184L36.9722 111.908H39.8889L43.7778 114.835L45.7222 113.534L47.9907 110.932L51.2315 109.956L52.2037 110.607L52.5278 115.811L53.8241 117.762L56.0926 119.388L57.3889 121.015V121.99L56.7407 122.966V124.592L59.6574 126.544L59.9815 128.495L62.8981 130.121L62.5741 132.073L61.2778 133.049L60.6296 134.024L61.2778 135H64.1944L64.8426 134.024H66.1389V135L70.0278 134.675L70.3518 133.699L71.3241 133.049L72.9444 132.398L74.5648 130.772L75.8611 131.422L76.8333 132.073L78.7778 132.398L80.3981 131.422L82.3426 130.121L84.6111 128.495L85.9074 126.544H87.5278L89.4722 127.519L91.0926 125.568L91.4167 123.942H93.037L94.0093 121.99L95.3056 122.316L95.9537 121.99V120.689L96.9259 119.388L99.8426 121.99L103.083 121.015L106 119.388L103.083 115.16V112.883L99.1944 111.583L96.9259 108.655L94.9815 101.5L96.2778 99.8738L96.9259 94.3447L94.6574 91.7427L93.037 86.2136L90.4444 82.3107L92.0648 78.0825L89.7963 76.1311L85.2593 77.432L82.9907 74.8301V69.301L78.7778 68.3252L74.2407 69.301L71.6481 70.6019H66.787L65.1667 68.3252L58.6852 67.6748L54.4722 66.699L51.5556 68.3252L48.6389 66.699L50.9074 61.1699L49.9352 60.1942L47.3426 59.8689V56.6165L48.6389 50.7621L45.7222 47.835L43.4537 44.2573V41.9806L46.6944 40.6796L49.6111 39.7039L54.4722 38.0777L53.1759 33.8495L49.287 29.9466L45.3981 27.0194L40.8611 20.1893L40.537 12.7087L37.6204 9.45631L34.7037 8.48058L32.1111 3.2767L30.4907 1.32524L26.9259 1L20.7685 4.57767H19.1481L17.8519 2.30097H14.6111V5.5534L13.3148 5.87864V9.45631L12.0185 10.7573L11.3704 12.0583L12.0185 13.3592L14.287 14.9854L15.5833 16.6117L17.8519 18.2379V19.5388L16.5556 20.1893L15.2593 21.4903H14.287V25.7184L12.9907 26.6942L10.3981 27.9951L8.77778 29.2961H7.48148L6.18518 30.5971L5.86111 32.2233L4.56481 33.199L3.91667 34.5V40.3544L5.86111 41.3301L6.83333 42.6311L7.48148 44.5825L6.18518 45.233L7.15741 46.534L8.12963 47.1845V48.1602L7.48148 49.7864L7.80556 54.3398L7.15741 55.6408L6.83333 57.5922L6.50926 58.568L4.88889 59.5437L3.59259 60.8447L2.94444 63.4466L4.24074 64.7476L4.88889 66.0485V68.3252L3.91667 69.9515L2.94444 71.5777L1.97222 73.5291L1 73.8544V78.0825L2.2963 78.733L2.94444 79.7087L4.88889 80.034L5.53704 81.335L6.50926 82.3107L9.75 81.9854V85.8884L10.3981 86.8641V90.4418L8.77778 91.7427L8.4537 93.3689L7.80556 95.6456L6.83333 95.9709L7.15741 97.5971L8.77778 97.754L9.75 99.5485L9.42593 100.524L8.4537 101.825L6.18518 102.15L5.53704 103.451V105.078L6.83333 106.053L7.48148 106.704L7.15741 110.282L6.18518 111.908V113.026Z" stroke="#7B9AE3" stroke-width="2" stroke-linejoin="round"/>
</svg>
