<svg width="80" height="135" viewBox="0 0 80 135" fill="none" xmlns="http://www.w3.org/2000/svg">
<path d="M77.4 130.805L78.6 132.402L77.4 134H75L73 132.802L70.2 131.604H67L65.4 130.405L63.8 128.408V126.411L61.8 124.414H59.4L57.8 125.613L56.2 126.411L53 126.012L51.8 125.213L49.8 121.619L49 120.82H47.8L46.2 122.417H45.8L44.2 120.82L42.2 120.42L41.4 120.021L41.8 116.826L40.6 115.628V112.432L39 111.234L37.4 108.838H35.4L33 107.64V106.441L30.2 105.643L28.6 104.844H24.2L23 106.841H21.8V104.045L22.2 101.249H19.8L18.6 102.447L18.2 100.45V97.6547L16.6 96.0571L14.6 94.8589H11.8L9.4 92.8619L8.6 90.8649L7.4 90.0661V88.0691L9.4 87.6697L10.6 86.8709L11.8 85.6727L11.4 84.0751H7.4L6.2 82.4775H5V79.6817L4.2 78.4835L6.2 78.0841L7.8 75.6877L7.4 73.6907L5.4 72.0931V68.0991L4.2 63.7057V60.9099L2.6 57.7147L1 54.5195V52.5225L2.2 51.3243L4.2 49.7267V48.5285L6.6 47.7297H7.8H10.6L11.4 45.7327H13L14.2 44.5345V40.9399L15.8 40.5405L19.4 39.7417H21L20.6 34.5495L20.2 33.3514L22.2 30.955H24.6H29.4L31.8 29.3574L34.6 28.5586L36.2 25.7628L37 23.7658L37.8 20.5706V18.5736L37 15.7778L38.2 14.5796L39.8 12.5826L40.2 10.5856L38.6 9.78679V8.98799L40.2 7.78979L40.6 6.59159L41.4 6.99099L43 7.39039L43.8 8.18919H49L49.8 7.39039H56.6L58.6 6.59159V4.59459H61L61.8 3.3964L63.8 2.5976L64.6 1.7988H69.4L70.2 1L72.2 2.5976L73.8 3.3964L75 2.5976L76.6 2.997L75.8 5.39339V6.59159V8.98799L76.6 9.78679L76.2 11.7838L77.4 12.1832L79 14.1802L75.8 14.979V16.5766L76.6 18.973L75.8 20.1712L75 22.967L73 24.5646L72.2 30.5556L73.4 31.3544V35.7477L75.8 38.9429V41.3393L75 42.5375L74.2 45.3333L75.8 47.3303L75 49.7267L74.2 52.1231L71.4 54.9189L70.2 56.5165L71.4 60.9099L72.2 64.9039L73.4 68.8979L74.2 70.8949V76.8859L73.4 78.0841L71.4 79.6817V83.6757L72.2 84.8739V88.4685L71.4 91.6637L69.8 92.8619L71.4 94.4595V96.8559L70.2 97.6547V104.045L71.4 105.243L70.2 106.042V108.838L72.2 111.234L71.4 112.432V116.426L70.2 120.42L72.6 122.417L73.8 125.213L75.4 128.009L77.4 130.805Z" fill="#9CB8FC" stroke="#7B9AE3" stroke-width="2" stroke-linejoin="round"/>
</svg>
