<svg width="127" height="113" viewBox="0 0 127 113" fill="none" xmlns="http://www.w3.org/2000/svg">
<path d="M26.8621 12.3767L29.633 10.8393L31.4803 11.1468L35.7906 5.91967L37.6379 4.99723H46.8744L48.7217 5.91967L52.1084 11.7618L55.4951 12.0693L57.3424 11.1468L58.266 9.9169L62.5764 12.3767L64.4236 15.4515L67.5025 14.8366L69.0419 11.7618L77.0468 6.53463H83.2044L86.899 4.07479L89.3621 1H95.5197L97.367 5.30471L98.5985 5.91967H101.677V12.3767L107.835 19.1413L113.377 20.6787L119.534 26.8283L120.766 29.903L118.611 32.3629L119.842 33.9003L117.687 38.205L118.611 38.8199L119.842 39.4349V42.2022L118.303 46.1994L119.534 49.8892L118.611 52.0416L117.071 54.5014L116.456 57.5762L117.071 60.9585L118.611 62.1884L119.534 63.4183L119.227 64.3407V65.8781L124.153 70.4903L126 73.2576L125.076 74.795V76.6399L126 77.8698L125.384 79.0997L124.153 81.2521L125.384 82.7895V84.0194L123.537 85.2493L120.458 86.1717H115.532L113.993 84.0194L110.606 83.7119L109.374 81.867V80.3296L110.298 80.0222L109.374 77.8698L108.451 78.4848L107.835 80.0222H105.68L103.525 79.0997L102.601 77.2549L100.138 77.8698L99.5222 80.0222V80.3296V81.867H97.0591V83.7119L97.9828 84.6344V85.2493L93.6724 88.9391L93.0566 91.3989L91.5172 92.9363L88.1305 94.1662V96.3186H86.899L84.7438 95.0886H81.3571L80.7414 97.241H78.5862L76.7389 95.7036L75.8153 96.3186V98.4709L77.6626 100.623V105.85H74.5837V108.003H71.197L69.6576 105.85L68.1182 104.313L66.2709 106.158V109.54H64.7315L64.4236 111.078L61.6527 112L61.0369 107.388L59.8054 106.158V105.85L56.7266 103.391L54.8793 102.776L55.4951 99.0859L50.569 95.0886H48.7217L49.0296 92.0139L48.7217 89.2465L46.2586 88.0166L43.7956 88.6316L41.3325 91.3989L35.1749 89.2465L31.4803 88.0166L27.4778 89.2465L22.8596 84.9418L18.2414 81.5596L15.4704 79.4072H11.7759H10.2365V77.2549L9.31281 76.3324L8.38916 75.41L10.2365 74.1801L9.31281 73.2576V72.0277L10.8522 70.1828L13.3153 71.7202L17.9335 71.4127L19.165 70.1828L22.2438 67.4155V62.8033L21.6281 61.8809V60.036H25.3227L26.5542 58.4986L24.0911 56.6537L23.7833 56.0388H26.5542L26.8621 55.1163L25.3227 53.8864L24.0911 52.349L23.7833 51.1191L24.7069 50.1967L24.399 49.2742L23.7833 48.3518L21.6281 49.2742L19.165 49.5817L16.702 46.8144L15.1626 44.9695V40.9723L14.2389 40.0499L12.3916 39.7424L11.7759 40.3573L10.2365 39.7424L9.00493 37.8975L5.31034 37.2826L2.53941 36.3601V33.9003L1.61576 32.6704L1 31.7479L3.15517 28.6731L4.3867 28.3657V27.1357H3.77094V23.1385L5.31034 22.2161L7.15764 20.9862L9.31281 19.4488L10.5443 17.6039H12.0837L13.931 18.5263L15.4704 16.6814L15.7783 15.144H17.3177L18.2414 13.2992L19.4729 13.6066L20.0887 13.2992V12.0693L21.0123 10.8393L23.7833 13.2992L26.8621 12.3767Z" fill="#9CB8FC" stroke="#7B9AE3" stroke-width="2" stroke-linejoin="round"/>
</svg>
