<svg width="123" height="131" viewBox="0 0 123 131" fill="none" xmlns="http://www.w3.org/2000/svg">
<path d="M106.012 46.0592L106.739 49.3296L106.375 52.6L104.559 55.1437L102.378 56.2338L100.562 58.0507L101.652 60.231L104.195 61.3211V62.4113L102.015 64.2282L103.105 65.3183L104.559 66.0451L106.375 67.1352L106.012 71.8592H107.102L108.556 73.3127V77.6732H110.009L112.553 78.4L113.643 79.8535L111.099 81.6704L113.643 82.3972L114.006 84.2141L116.186 85.3042L118.73 88.5746L119.456 93.2986L118.003 95.1155V97.2958L122 98.0225L121.273 99.4761L119.093 102.02L116.186 103.473L114.733 101.293L113.643 100.566L111.826 101.656L110.009 103.473L108.556 104.927L111.099 107.834L114.733 109.287L118.003 112.194L119.456 114.738L117.276 115.465H114.733V116.192L112.553 117.282L110.009 115.465L107.465 116.192H105.285L103.468 117.282L104.922 120.189V122.369L102.378 123.823H96.9279L94.3844 122.369L92.2042 121.642L89.2973 123.823L85.6637 123.096H82.3934L79.1231 120.189L75.1261 119.462V123.823L71.4925 127.093L68.2222 130L64.5886 120.915L56.5946 118.372L51.5075 119.462L50.7808 121.642L48.2372 123.823L47.1471 122.369V119.462H43.8769L43.1502 118.372L45.3303 115.465L44.6036 112.921H41.6967L39.5165 114.738H38.0631L36.973 112.194L32.6126 111.468L31.8859 107.47L27.1622 106.38L24.6186 104.2L20.2583 98.7493L17.7147 97.2958H12.991L11.1742 96.2056H6.08709L5.72372 94.0254V91.4817L6.08709 89.6648L2.81682 85.3042L1 84.5775V82.9514L2.45345 80.2169L2.81682 75.1296L3.18018 74.0394L3.54354 71.4958L2.81682 70.4056L3.18018 68.9521L3.54354 57.3239L4.27027 55.8704L6.81381 54.0535L7.54054 51.5099L8.26727 51.1465H11.9009L12.2643 49.693L14.4444 49.3296H15.5345L17.3514 50.7831L19.5315 51.5099L20.985 50.7831L23.5285 49.693L24.6186 49.3296L24.982 45.6958L24.2553 43.5155V40.9718L24.982 40.6085L24.2553 39.1549V36.9746L22.8018 35.5211V32.6141L21.3483 30.0704L19.8949 27.8901L19.1682 25.7099L20.6216 24.6197L22.0751 24.2563L21.7117 20.6225L22.4384 18.4423L23.1652 16.9887L22.0751 14.8085L21.3483 12.2648L22.0751 11.538L24.2553 10.8113V9.35775L25.7087 8.63099L27.5255 7.90423L30.7958 8.63099H34.4294L37.3363 6.81408L41.3333 7.90423L43.8769 6.81408L47.1471 7.90423L51.5075 6.08732H54.4144L57.3213 7.17746L59.8649 6.08732L60.955 6.81408L63.1351 7.17746L66.042 4.6338L67.1321 2.8169L68.2222 1H71.4925L73.3093 3.54366V6.81408L74.7628 7.90423L75.1261 11.538L73.3093 12.9915L72.2192 14.8085L75.1261 19.8958L77.6697 21.7127H86.3904L88.9339 20.9859L91.4775 18.8056L94.021 18.0789L96.5646 17.3521L98.7447 18.4423L98.018 19.8958L96.9279 21.7127L97.2913 23.5296L99.4715 25.3465L100.198 26.4366L98.7447 28.6169L99.4715 29.707L100.562 31.1606L100.198 33.3408L97.6547 34.7944L97.2913 37.338L98.7447 38.0648L100.198 40.6085L102.378 42.062L106.012 46.0592Z" fill="#9CB8FC" stroke="#7B9AE3" stroke-width="2" stroke-linejoin="round"/>
</svg>
