<svg width="148" height="132" viewBox="0 0 148 132" fill="none" xmlns="http://www.w3.org/2000/svg">
<path d="M12.9184 48.4425L5.84184 51.0575V57.408L8.82143 63.3851H14.0357V62.2644L15.1531 60.7701H17.3878L20.7398 64.1322L18.8776 68.2414L19.9949 73.0977L23.3469 77.2069V82.4368L24.4643 85.0517L28.5612 85.7989L30.7959 87.6667L34.8929 91.0287V93.6437L33.4031 94.3908L31.9133 99.2471L30.7959 101.862H28.5612L29.3061 104.851L33.4031 105.598V108.213L31.9133 110.454L34.8929 112.695L38.2449 113.443L39.3622 116.431L44.2041 117.552L47.9286 118.299V119.793L49.4184 128.011L50.9082 131L53.1429 128.759L57.2398 124.649L56.8673 120.54L55.0051 118.299V116.805L56.8673 116.431L59.8469 120.914L60.5918 125.397L62.0816 126.891H63.9439L66.551 122.408L71.0204 118.672L76.9796 114.937L80.7041 108.96L85.9184 104.851L92.25 101.862L97.4643 100.741L103.423 99.9943L106.031 102.983H107.52L109.383 98.5L114.224 94.7644L120.184 92.8966L123.163 91.4023H126.143L130.24 94.0172H132.474L134.337 91.7759L134.709 88.7874L141.786 82.8103L139.551 79.8218L140.296 77.5805L141.786 76.4598H144.02V74.9655L142.903 74.592V72.7241L144.765 71.2299L142.903 70.4828H140.296L139.551 69.7356L138.434 67.1207L135.827 64.1322L133.964 63.3851L132.474 61.8908L131.357 60.7701L132.474 59.2759L133.964 57.0345L135.082 55.9138L132.474 55.5402V54.046L133.964 52.1782L136.571 53.6724H138.806L140.296 51.431L141.041 47.3218H144.765L145.51 44.7069L147 42.4655L145.51 40.5977L141.041 40.2241L139.551 39.1035L136.571 36.8621L135.082 34.9943L132.474 33.5L129.867 35.7414L128.378 34.2471L125.026 32.3793L122.046 30.8851V27.8966L119.811 26.7759L118.321 22.2931L113.852 20.7989V15.9425L111.99 14.8218L111.245 13.3276L110.5 16.6897L108.265 18.5575L106.403 17.8103H103.423L102.306 19.3046L99.699 19.6782L97.4643 18.5575L96.7194 16.3161H94.8571L94.1122 17.8103L92.9949 19.6782L89.6429 18.5575L88.898 16.3161L91.8775 15.1954V12.954L88.898 11.4598L87.0357 8.47126L88.1531 6.22989L87.0357 5.1092L86.2908 6.22989H84.4286L83.6837 1.37356H80.7041L77.7245 3.61494L73.6275 1.37356L69.1582 1L66.1786 2.12069L62.0816 3.61494V2.86782L59.102 2.49425L56.1224 3.61494L53.8878 1.37356L49.7908 1L48.301 2.49425H40.1071V3.61494L36.7551 5.1092L33.7755 4.73563L32.2857 2.86782H31.5408V5.1092L32.2857 6.97701V8.47126H30.4235V9.96552L33.0306 11.4598L36.0102 14.4483L35.2653 16.3161H33.0306L30.4235 17.8103L31.5408 20.4253L35.2653 22.6667L36.7551 24.908L35.2653 27.1494L37.8724 29.0172V35.3678L36.7551 37.9828L38.6173 42.8391L33.0306 45.0805H25.9541H19.9949L12.9184 48.4425Z" fill="#9CB8FC"/>
<path d="M1 48.4425L5.84184 51.0575M5.84184 51.0575L12.9184 48.4425L19.9949 45.0805H25.9541H33.0306L38.6173 42.8391L36.7551 37.9828L37.8724 35.3678V29.0172L35.2653 27.1494L36.7551 24.908L35.2653 22.6667L31.5408 20.4253L30.4235 17.8103L33.0306 16.3161H35.2653L36.0102 14.4483L33.0306 11.4598L30.4235 9.96552V8.47126H32.2857V6.97701L31.5408 5.1092V2.86782H32.2857L33.7755 4.73563L36.7551 5.1092L40.1071 3.61494V2.49425H48.301L49.7908 1L53.8878 1.37356L56.1224 3.61494L59.102 2.49425L62.0816 2.86782V3.61494L66.1786 2.12069L69.1582 1L73.6276 1.37356L77.7245 3.61494L80.7041 1.37356H83.6837L84.4286 6.22989H86.2908L87.0357 5.1092L88.1531 6.22989L87.0357 8.47126L88.898 11.4598L91.8776 12.954V15.1954L88.898 16.3161L89.6429 18.5575L92.9949 19.6782L94.1122 17.8103L94.8571 16.3161H96.7194L97.4643 18.5575L99.699 19.6782L102.306 19.3046L103.423 17.8103H106.403L108.265 18.5575L110.5 16.6897L111.245 13.3276L111.99 14.8218L113.852 15.9425V20.7989L118.321 22.2931L119.811 26.7759L122.046 27.8966V30.8851L125.026 32.3793L128.378 34.2471L129.867 35.7414L132.474 33.5L135.082 34.9943L136.571 36.8621L139.551 39.1034L141.041 40.2241L145.51 40.5977L147 42.4655L145.51 44.7069L144.765 47.3218H141.041L140.296 51.431L138.806 53.6724H136.571L133.964 52.1782L132.474 54.046V55.5402L135.082 55.9138L133.964 57.0345L132.474 59.2759L131.357 60.7701L132.474 61.8908L133.964 63.3851L135.827 64.1322L138.434 67.1207L139.551 69.7356L140.296 70.4828H142.903L144.765 71.2299L142.903 72.7241V74.592L144.02 74.9655V76.4598H141.786L140.296 77.5805L139.551 79.8218L141.786 82.8103L134.709 88.7874L134.337 91.7759L132.474 94.0172H130.24L126.143 91.4023H123.163L120.184 92.8966L114.224 94.7644L109.383 98.5L107.52 102.983H106.031L103.423 99.9943L97.4643 100.741L92.25 101.862L85.9184 104.851L80.7041 108.96L76.9796 114.937L71.0204 118.672L66.551 122.408L63.9439 126.891H62.0816L60.5918 125.397L59.8469 120.914L56.8673 116.431L55.0051 116.805V118.299L56.8673 120.54L57.2398 124.649L53.1429 128.759L50.9082 131L49.4184 128.011L47.9286 119.793V118.299L44.2041 117.552L39.3622 116.431L38.2449 113.443L34.8929 112.695L31.9133 110.454L33.4031 108.213V105.598L29.3061 104.851L28.5612 101.862H30.7959L31.9133 99.2471L33.4031 94.3908L34.8929 93.6437V91.0287L30.7959 87.6667L28.5612 85.7989L24.4643 85.0517L23.3469 82.4368V77.2069L19.9949 73.0977L18.8776 68.2414L20.7398 64.1322L17.3878 60.7701H15.1531L14.0357 62.2644V63.3851H8.82143L5.84184 57.408V51.0575Z" stroke="#7B9AE3" stroke-width="2" stroke-linejoin="round"/>
</svg>
