<svg width="105" height="132" viewBox="0 0 105 132" fill="none" xmlns="http://www.w3.org/2000/svg">
<path d="M27.1694 10.4545L24.8208 9.1039L24.4853 8.76623L22.1368 10.1169L21.4658 12.1429V14.5065H20.4593L18.4463 12.1429L17.1042 13.1558L17.7752 14.8442V17.5455L15.0912 20.9221V22.2727L16.0977 23.6234V24.974L13.7492 26.6623V28.013L12.0717 29.3636L11.4007 31.7273V33.0779L10.0586 34.0909L9.38762 35.7792L7.7101 36.4545L6.70358 37.1299H5.36156L5.69707 38.8182L6.36808 39.4935V42.5325V43.8831L7.03909 44.2208V46.2468L6.36808 47.9351V52.3247L6.70358 53L7.03909 54.013L7.7101 54.6883V56.039V57.0519L6.36808 57.7273L6.03257 59.4156L5.36156 61.4416L4.69055 62.4545L3.68404 64.8182H1L2.34202 66.8442L3.34853 68.8701L5.36156 69.8831L6.36808 71.2338L6.70358 72.9221L6.03257 74.2727L4.69055 75.2857L5.36156 77.3117L6.70358 78.6623L8.0456 81.3636L10.7296 82.7143L11.4007 84.4026L15.4267 88.1169L16.7687 87.4416L17.1042 86.7662H18.4463L19.4528 87.7792V89.4675L20.1238 90.4805V93.5195L20.7948 94.5325V97.5714V100.948L19.1173 101.286L16.7687 102.299V103.312L17.7752 104.662L16.7687 107.026L15.4267 108.039L16.7687 109.727L18.4463 112.091L19.4528 114.455L21.1303 115.13L23.8143 116.481L25.1564 117.494L26.8339 119.519L28.1759 118.844L29.8534 118.169L32.873 118.844H36.228L38.9121 117.156L42.6026 118.169L44.9511 117.156L47.9707 118.169L51.9967 116.481H54.6808L57.3648 117.494L59.7134 116.481L60.7199 117.156L62.7329 117.494L65.4169 115.13L66.4235 113.442L67.43 111.753H70.4495L72.127 114.117V117.156L73.4691 118.169L73.8046 121.545L72.127 122.896L71.1205 124.584L73.8046 129.312L76.1531 131H84.2052L86.5537 130.325L88.9023 128.299L91.2508 127.623L93.5993 126.948V124.247L91.5863 123.909L91.9218 122.221L92.2573 120.195L91.5863 119.182V117.494H93.5993L94.9414 115.805L97.6254 115.13L97.9609 113.779L100.309 113.104L102.658 110.74L104 109.052V106.688L102.658 106.013L101.651 104.325L101.316 99.2597H102.993L104 98.2467V95.2078L102.993 94.1948V88.1169L102.322 87.7792L101.316 86.0909L99.3029 85.4156V84.0649L98.6319 79.6753H95.2769L92.5928 78.6623V77.6494L93.9349 76.2987L95.2769 75.6234L94.9414 73.5974H93.5993V72.5844L95.9479 70.8961V69.5455L94.6059 67.8571V65.8312L96.6189 64.1429L97.6254 62.4545L98.6319 61.1039L98.2964 56.7143L95.2769 56.3766L94.9414 54.6883L95.2769 51.987V49.6234L92.9283 45.9091L90.5798 44.8961V44.2208L92.5928 43.2078L94.9414 41.8571V38.1429L92.5928 34.4286L87.8958 33.0779L87.5603 31.0519V27L90.5798 23.961L91.2508 20.9221L88.9023 17.5455L87.8958 14.5065L86.2182 12.1429V8.09091L82.8632 2.68831H78.8371L76.1531 6.06494L71.1205 6.4026L67.43 10.7922L67.0945 14.1688H63.4039L62.3974 9.44156L62.0619 6.06494L55.6873 5.38961L52.6678 7.41558L50.9902 7.07792L46.9642 1H45.9577L42.6026 5.05195H36.228L32.873 1.67532L30.1889 4.37662L30.5244 7.41558L27.1694 10.4545Z" fill="#9CB8FC" stroke="#7B9AE3" stroke-width="2" stroke-linejoin="round"/>
</svg>
