<svg aria-hidden="true" style="width:0;height:0;position:absolute;overflow:hidden" xmlns="http://www.w3.org/2000/svg"><defs><symbol id="icon-Vector-114" viewBox="0 0 18 32"><path d="M16.629 2.406a.889.889 0 0 0-1.257-1.257l1.257 1.257zM1.778 16l-.629-.629a.889.889 0 0 0 0 1.257l.629-.629zm13.593 14.851a.889.889 0 0 0 1.257-1.257l-1.257 1.257zm0-29.702L1.149 15.371l1.257 1.257L16.628 2.406l-1.257-1.257zM1.149 16.629l14.222 14.222 1.257-1.257L2.406 15.372l-1.257 1.257z"/></symbol><symbol id="icon-Vector-115" viewBox="0 0 18 32"><path d="M16.629 2.406a.889.889 0 0 0-1.257-1.257l1.257 1.257zM1.778 16l-.629-.629a.889.889 0 0 0 0 1.257l.629-.629zm13.593 14.851a.889.889 0 0 0 1.257-1.257l-1.257 1.257zm0-29.702L1.149 15.371l1.257 1.257L16.628 2.406l-1.257-1.257zM1.149 16.629l14.222 14.222 1.257-1.257L2.406 15.372l-1.257 1.257z"/></symbol><symbol id="icon-Vector-116" viewBox="0 0 18 32"><path d="M16.629 2.406a.889.889 0 0 0-1.257-1.257l1.257 1.257zM1.778 16l-.629-.629a.889.889 0 0 0 0 1.257l.629-.629zm13.593 14.851a.889.889 0 0 0 1.257-1.257l-1.257 1.257zm0-29.702L1.149 15.371l1.257 1.257L16.628 2.406l-1.257-1.257zM1.149 16.629l14.222 14.222 1.257-1.257L2.406 15.372l-1.257 1.257z"/></symbol></defs></svg>