<svg aria-hidden="true" style="position: absolute; width: 0; height: 0; overflow: hidden;" version="1.1" xmlns="http://www.w3.org/2000/svg" xmlns:xlink="http://www.w3.org/1999/xlink">
<defs>
<symbol id="icon-Vector-114" viewBox="0 0 18 32">
<path d="M16.629 2.406c0.347-0.347 0.347-0.91 0-1.257s-0.91-0.347-1.257 0l1.257 1.257zM1.778 16l-0.629-0.629c-0.347 0.347-0.347 0.91 0 1.257l0.629-0.629zM15.371 30.851c0.347 0.347 0.91 0.347 1.257 0s0.347-0.91 0-1.257l-1.257 1.257zM15.371 1.149l-14.222 14.222 1.257 1.257 14.222-14.222-1.257-1.257zM1.149 16.629l14.222 14.222 1.257-1.257-14.222-14.222-1.257 1.257z"></path>
</symbol>
<symbol id="icon-Vector-115" viewBox="0 0 18 32">
<path d="M16.629 2.406c0.347-0.347 0.347-0.91 0-1.257s-0.91-0.347-1.257 0l1.257 1.257zM1.778 16l-0.629-0.629c-0.347 0.347-0.347 0.91 0 1.257l0.629-0.629zM15.371 30.851c0.347 0.347 0.91 0.347 1.257 0s0.347-0.91 0-1.257l-1.257 1.257zM15.371 1.149l-14.222 14.222 1.257 1.257 14.222-14.222-1.257-1.257zM1.149 16.629l14.222 14.222 1.257-1.257-14.222-14.222-1.257 1.257z"></path>
</symbol>
<symbol id="icon-Vector-116" viewBox="0 0 18 32">
<path d="M16.629 2.406c0.347-0.347 0.347-0.91 0-1.257s-0.91-0.347-1.257 0l1.257 1.257zM1.778 16l-0.629-0.629c-0.347 0.347-0.347 0.91 0 1.257l0.629-0.629zM15.371 30.851c0.347 0.347 0.91 0.347 1.257 0s0.347-0.91 0-1.257l-1.257 1.257zM15.371 1.149l-14.222 14.222 1.257 1.257 14.222-14.222-1.257-1.257zM1.149 16.629l14.222 14.222 1.257-1.257-14.222-14.222-1.257 1.257z"></path>
</symbol>
</defs>
</svg>
